<?xml version="1.0" encoding="UTF-8"?> <svg xmlns="http://www.w3.org/2000/svg" width="63" height="47" viewBox="0 0 63 47" fill="none"><path d="M40 24.9106H59.3531" stroke="#252437" stroke-width="2" stroke-miterlimit="10"></path><path d="M39.7809 35.2209L39.6748 35.1528L53.0181 41.8919" stroke="#252437" stroke-width="2" stroke-miterlimit="10"></path><path d="M53.4231 44.3174C54.5396 44.3174 55.4448 43.4122 55.4448 42.2956C55.4448 41.1791 54.5396 40.2739 53.4231 40.2739C52.3065 40.2739 51.4014 41.1791 51.4014 42.2956C51.4014 43.4122 52.3065 44.3174 53.4231 44.3174Z" fill="white" stroke="#252437" stroke-width="2" stroke-miterlimit="10"></path><path d="M39.6748 15.0721L53.0184 8.33301" stroke="#252437" stroke-width="2" stroke-miterlimit="10"></path><path d="M53.4231 9.95017C54.5396 9.95017 55.4448 9.04502 55.4448 7.92845C55.4448 6.81189 54.5396 5.90674 53.4231 5.90674C52.3065 5.90674 51.4014 6.81189 51.4014 7.92845C51.4014 9.04502 52.3065 9.95017 53.4231 9.95017Z" fill="white" stroke="#252437" stroke-width="2" stroke-miterlimit="10"></path><path d="M59.3528 26.9326C60.4693 26.9326 61.3745 26.0274 61.3745 24.9109C61.3745 23.7943 60.4693 22.8892 59.3528 22.8892C58.2362 22.8892 57.3311 23.7943 57.3311 24.9109C57.3311 26.0274 58.2362 26.9326 59.3528 26.9326Z" fill="white" stroke="#252437" stroke-width="2" stroke-miterlimit="10"></path><path d="M22.208 24.9111H3.13619" stroke="#252437" stroke-width="2" stroke-miterlimit="10"></path><path d="M22.8174 35.1533L9.47156 41.8924" stroke="#252437" stroke-width="2" stroke-miterlimit="10"></path><path d="M9.06683 44.3178C7.95009 44.3178 7.04479 43.4127 7.04479 42.2961C7.04479 41.1796 7.95009 40.2744 9.06683 40.2744C10.1836 40.2744 11.0889 41.1796 11.0889 42.2961C11.0889 43.4127 10.1836 44.3178 9.06683 44.3178Z" fill="white" stroke="#252437" stroke-width="2" stroke-miterlimit="10"></path><path d="M22.8164 15.0725L9.4712 8.3335" stroke="#252437" stroke-width="2" stroke-miterlimit="10"></path><path d="M9.0678 9.95066C7.95106 9.95066 7.04576 9.0455 7.04576 7.92894C7.04576 6.81238 7.95106 5.90723 9.0678 5.90723C10.1845 5.90723 11.0898 6.81238 11.0898 7.92894C11.0898 9.0455 10.1845 9.95066 9.0678 9.95066Z" fill="white" stroke="#252437" stroke-width="2" stroke-miterlimit="10"></path><path d="M3.13519 26.9331C2.01844 26.9331 1.11315 26.0279 1.11315 24.9114C1.11315 23.7948 2.01844 22.8896 3.13519 22.8896C4.25193 22.8896 5.15723 23.7948 5.15723 24.9114C5.15723 26.0279 4.25193 26.9331 3.13519 26.9331Z" fill="white" stroke="#252437" stroke-width="2" stroke-miterlimit="10"></path><path d="M31.2461 0.0498047V46.5088" stroke="#0864EF" stroke-width="2"></path></svg> 