<?xml version="1.0" encoding="UTF-8"?> <svg xmlns="http://www.w3.org/2000/svg" width="85" height="85" viewBox="0 0 85 85" fill="none"><path d="M44.0777 10.8164C44.0777 5.3998 39.7144 1.03644 34.2978 1.03644C30.8372 1.03644 27.6775 2.84197 26.0224 5.70073C22.7123 5.85119 19.8535 7.3558 18.048 9.76317C16.9948 9.46225 15.9415 9.31179 14.8883 9.31179C8.26802 9.31179 2.85143 14.7284 2.85143 21.3487C2.85143 23.4551 3.45327 25.4111 4.35604 27.2166C2.24959 29.624 1.0459 32.7837 1.0459 36.2443C1.0459 39.2535 2.09912 42.1123 3.7542 44.5196C2.09912 46.6261 1.0459 49.1839 1.0459 52.0427C1.0459 58.5125 6.16157 63.7786 12.4809 64.0796C12.3305 65.1328 12.18 66.186 12.18 67.3897C12.18 76.4174 19.4021 83.6395 28.4298 83.6395C35.8024 83.6395 41.9713 78.6743 44.0777 72.054C44.2282 71.7531 44.2282 12.4715 44.2282 12.4715C44.2282 12.4715 44.0777 11.4182 44.0777 10.8164Z" stroke="#0864EF" stroke-width="2" stroke-miterlimit="10"></path><path d="M26.3231 16.3835C25.2699 14.7284 24.5176 12.9229 24.5176 10.8164C24.5176 8.86043 25.1194 7.0549 26.0222 5.55029" stroke="#0864EF" stroke-width="2" stroke-miterlimit="10"></path><path d="M14.8884 33.536C8.26816 33.536 2.85156 28.1194 2.85156 21.4991" stroke="#0864EF" stroke-width="2" stroke-miterlimit="10"></path><path d="M28.2791 83.79C19.2514 83.79 12.0293 76.5679 12.0293 67.5402C12.0293 58.5126 19.2514 51.2904 28.2791 51.2904" stroke="#0864EF" stroke-width="2" stroke-miterlimit="10"></path><path d="M37.7587 71.7531C36.2541 75.2137 32.7935 77.7715 28.7311 77.7715C24.0668 77.7715 20.0043 74.4614 19.1016 69.9475" stroke="#0864EF" stroke-width="2" stroke-miterlimit="10"></path><path d="M26.7742 34.2883C25.8714 34.7397 25.1191 35.6424 25.1191 36.8461C25.1191 38.3507 26.3228 39.7049 27.9779 39.7049H33.545" stroke="#0864EF" stroke-width="2" stroke-miterlimit="10"></path><path d="M10.6752 15.9321C9.02009 17.1358 7.81641 19.2423 7.81641 21.4992C7.81641 25.4112 10.9761 28.4204 14.7376 28.4204" stroke="#0864EF" stroke-width="2" stroke-miterlimit="10"></path><path d="M30.5361 20.4459C31.2884 19.6936 32.3417 19.2422 33.5454 19.2422C35.8023 19.2422 37.7583 21.0477 37.7583 23.4551C37.7583 25.8625 35.9527 27.668 33.5454 27.668" stroke="#0864EF" stroke-width="2" stroke-miterlimit="10"></path><path d="M53.4072 36.2443L81.8443 35.7929" stroke="#252437" stroke-width="2" stroke-miterlimit="10"></path><path d="M53.4072 47.9803H81.8443" stroke="#252437" stroke-width="2" stroke-miterlimit="10"></path><path d="M53.4072 60.0172H59.877L74.7727 67.5402" stroke="#252437" stroke-width="2" stroke-miterlimit="10"></path><path d="M75.2237 70.2484C76.4702 70.2484 77.4806 69.238 77.4806 67.9915C77.4806 66.7451 76.4702 65.7346 75.2237 65.7346C73.9773 65.7346 72.9668 66.7451 72.9668 67.9915C72.9668 69.238 73.9773 70.2484 75.2237 70.2484Z" fill="white" stroke="#252437" stroke-width="2" stroke-miterlimit="10"></path><path d="M53.4072 24.8093H59.877L74.7727 17.2863" stroke="#252437" stroke-width="2" stroke-miterlimit="10"></path><path d="M75.2237 19.0918C76.4702 19.0918 77.4806 18.0813 77.4806 16.8349C77.4806 15.5884 76.4702 14.5779 75.2237 14.5779C73.9773 14.5779 72.9668 15.5884 72.9668 16.8349C72.9668 18.0813 73.9773 19.0918 75.2237 19.0918Z" fill="white" stroke="#252437" stroke-width="2" stroke-miterlimit="10"></path><path d="M80.7911 37.7489C82.0376 37.7489 83.048 36.7385 83.048 35.492C83.048 34.2456 82.0376 33.2351 80.7911 33.2351C79.5446 33.2351 78.5342 34.2456 78.5342 35.492C78.5342 36.7385 79.5446 37.7489 80.7911 37.7489Z" fill="white" stroke="#252437" stroke-width="2" stroke-miterlimit="10"></path><path d="M80.7911 50.6886C82.0376 50.6886 83.048 49.6781 83.048 48.4317C83.048 47.1852 82.0376 46.1747 80.7911 46.1747C79.5446 46.1747 78.5342 47.1852 78.5342 48.4317C78.5342 49.6781 79.5446 50.6886 80.7911 50.6886Z" fill="white" stroke="#252437" stroke-width="2" stroke-miterlimit="10"></path></svg> 