<?xml version="1.0" encoding="UTF-8"?> <svg xmlns="http://www.w3.org/2000/svg" width="64" height="63" viewBox="0 0 64 63" fill="none"><g clip-path="url(#clip0)"><path d="M26.8998 38.9779C28.7998 39.9779 30.9998 40.5779 33.2998 40.3779C39.3998 40.0779 44.2998 34.9779 44.5998 28.8779C44.7998 21.7779 38.8998 15.9779 31.6998 16.5779C25.9998 17.0779 21.3998 21.5779 20.7998 27.2779C20.5998 29.7779 21.0998 32.2779 22.2998 34.2779C22.4998 34.6779 22.5998 35.1779 22.3998 35.6779C21.7998 37.2779 20.3998 40.8779 20.6998 40.8779C20.9998 40.8779 24.0998 39.5779 25.5998 38.8779C25.8998 38.7779 26.3998 38.7779 26.8998 38.9779Z" stroke="#252437" stroke-width="2" stroke-miterlimit="10"></path><path d="M8 44.7778C6.1 44.7778 4.5 43.1778 4.5 41.2778V28.2778C4.5 26.3778 6.1 24.7778 8 24.7778C9.9 24.7778 11.5 26.3778 11.5 28.2778V41.2778C11.5 43.1778 9.9 44.7778 8 44.7778Z" stroke="#0864EF" stroke-width="2" stroke-miterlimit="10" stroke-linecap="round"></path><path d="M56 44.7778C54.1 44.7778 52.5 43.1778 52.5 41.2778V28.2778C52.5 26.3778 54.1 24.7778 56 24.7778C57.9 24.7778 59.5 26.3778 59.5 28.2778V41.2778C59.5 43.1778 57.9 44.7778 56 44.7778Z" stroke="#0864EF" stroke-width="2" stroke-miterlimit="10" stroke-linecap="round"></path><path d="M8 24.7778C8.3 11.7778 18.9 1.27783 32 1.27783C45 1.27783 55.5 11.5778 56 24.3778" stroke="#0864EF" stroke-width="2" stroke-miterlimit="10" stroke-linecap="round"></path><path d="M4.3 29.3779C2.3 30.3779 1 32.3779 1 34.7779C1 37.1779 2.4 39.1779 4.4 40.1779" stroke="#0864EF" stroke-width="2" stroke-miterlimit="10" stroke-linecap="round"></path><path d="M59.6996 29.3779C61.6996 30.3779 62.9996 32.3779 62.9996 34.7779C62.9996 37.1779 61.5996 39.1779 59.5996 40.1779" stroke="#0864EF" stroke-width="2" stroke-miterlimit="10" stroke-linecap="round"></path><path d="M56 45.2778V49.4778C56 54.3778 52.1 58.2778 47.2 58.2778H38" stroke="#0864EF" stroke-width="2" stroke-miterlimit="10" stroke-linecap="round"></path><path d="M36.2004 61.2777H29.7004C28.7004 61.2777 27.9004 60.4777 27.9004 59.4777V56.9777C27.9004 55.9777 28.7004 55.1777 29.7004 55.1777H36.2004C37.2004 55.1777 38.0004 55.9777 38.0004 56.9777V59.4777C38.0004 60.4777 37.2004 61.2777 36.2004 61.2777Z" stroke="#0864EF" stroke-width="2" stroke-miterlimit="10" stroke-linecap="round"></path></g><defs><clipPath id="clip0"><rect y="0.277832" width="64" height="62" fill="white"></rect></clipPath></defs></svg> 