<?xml version="1.0" encoding="UTF-8"?> <svg xmlns="http://www.w3.org/2000/svg" width="61" height="62" viewBox="0 0 61 62" fill="none"><path d="M16.6422 55.8088C21.2422 58.3088 26.5422 59.6088 32.1422 59.3088C46.9422 58.5088 58.9422 46.2088 59.4422 31.4088C60.1422 14.2088 45.6422 0.208839 28.2422 1.60884C14.3422 2.70884 3.14221 13.8088 1.74221 27.6088C1.14221 33.8088 2.54221 39.6088 5.24221 44.6088C5.84221 45.6088 5.9422 46.9088 5.4422 48.0088C3.9422 51.8088 0.542205 60.5088 1.24221 60.5088C2.04221 60.5088 9.54221 57.3088 13.1422 55.7088C14.3422 55.2088 15.6422 55.3088 16.6422 55.8088Z" stroke="#0864EF" stroke-width="2" stroke-miterlimit="10" stroke-linecap="round"></path><path d="M30.3416 34.7091C27.2416 34.7091 24.6416 32.1091 24.6416 29.0091V20.5091C24.6416 17.4091 27.2416 14.8091 30.3416 14.8091C33.4416 14.8091 36.0416 17.4091 36.0416 20.5091V29.1091C36.0416 32.2091 33.5416 34.7091 30.3416 34.7091Z" stroke="#252437" stroke-width="2" stroke-miterlimit="10" stroke-linecap="round"></path><path d="M30.3418 39.6094V47.2094" stroke="#252437" stroke-width="2" stroke-miterlimit="10" stroke-linecap="round"></path><path d="M26.9414 47.2095H33.8414" stroke="#252437" stroke-width="2" stroke-miterlimit="10" stroke-linecap="round"></path><path d="M39.3418 30.0093C39.3418 35.0093 35.3418 39.0093 30.3418 39.0093C25.3418 39.0093 21.3418 35.0093 21.3418 30.0093" stroke="#252437" stroke-width="2" stroke-miterlimit="10" stroke-linecap="round"></path></svg> 