<?xml version="1.0" encoding="UTF-8"?> <svg xmlns="http://www.w3.org/2000/svg" width="70" height="50" viewBox="0 0 70 50" fill="none"><g clip-path="url(#clip0)"><path d="M27.1133 42.011H41.0133" stroke="#252437" stroke-width="2" stroke-miterlimit="10" stroke-linecap="round"></path><path d="M6.01367 6.61108V6.91108C6.01367 4.01108 8.41367 1.61108 11.3137 1.61108H57.6137C60.6137 1.61108 62.9137 4.01108 62.9137 6.91108V6.61108" stroke="#0864EF" stroke-width="2" stroke-miterlimit="10" stroke-linecap="round"></path><path d="M19.0137 32.6111C22.8797 32.6111 26.0137 29.4771 26.0137 25.6111C26.0137 21.7451 22.8797 18.6111 19.0137 18.6111C15.1477 18.6111 12.0137 21.7451 12.0137 25.6111C12.0137 29.4771 15.1477 32.6111 19.0137 32.6111Z" stroke="#252437" stroke-width="2" stroke-miterlimit="10" stroke-linecap="round"></path><path d="M50.0137 32.6111C53.8797 32.6111 57.0137 29.4771 57.0137 25.6111C57.0137 21.7451 53.8797 18.6111 50.0137 18.6111C46.1477 18.6111 43.0137 21.7451 43.0137 25.6111C43.0137 29.4771 46.1477 32.6111 50.0137 32.6111Z" stroke="#252437" stroke-width="2" stroke-miterlimit="10" stroke-linecap="round"></path><path d="M68.0137 32.1111V42.7111C68.0137 45.9111 65.4137 48.6111 62.1137 48.6111H49.1137C47.0137 48.6111 45.1137 47.5111 44.0137 45.7111L40.1137 38.9111L39.5137 37.9111C37.2137 34.0111 31.6137 34.0111 29.4137 37.9111L28.8137 38.9111L24.9137 45.7111C23.9137 47.5111 21.9137 48.6111 19.8137 48.6111H6.81367C3.61367 48.6111 1.01367 46.0111 1.01367 42.7111V19.1111" stroke="#0864EF" stroke-width="2" stroke-miterlimit="10" stroke-linecap="round"></path><path d="M1.01367 18.6111V13.5111C1.01367 10.2111 3.61367 7.61108 6.91367 7.61108H62.2137C65.4137 7.61108 68.1137 10.2111 68.1137 13.5111V31.6111" stroke="#0864EF" stroke-width="2" stroke-miterlimit="10" stroke-linecap="round"></path></g><defs><clipPath id="clip0"><rect x="0.0136719" y="0.611084" width="69" height="49" fill="white"></rect></clipPath></defs></svg> 