<?xml version="1.0" encoding="UTF-8"?> <svg xmlns="http://www.w3.org/2000/svg" width="62" height="61" viewBox="0 0 62 61" fill="none"><g clip-path="url(#clip0)"><path d="M17.2916 55.3C21.8916 57.8 27.1916 59.1 32.7916 58.8C47.5916 58 59.5916 45.7 60.0916 30.9C60.7916 13.7 46.2916 -0.29995 28.8916 1.10005C14.9916 2.20005 3.79162 13.3 2.39162 27.1C1.79162 33.3 3.19162 39.1 5.89162 44.1C6.49162 45.1 6.59162 46.4 6.09162 47.5C4.59162 51.3 1.19162 60 1.89162 60C2.69162 60 10.1916 56.8001 13.7916 55.2001C14.9916 54.7001 16.2916 54.8 17.2916 55.3Z" stroke="#0864EF" stroke-width="2" stroke-miterlimit="10" stroke-linecap="round"></path><path d="M17.0918 37.5002L26.3918 24.3002L34.8918 28.9002L44.9918 22.7002L36.4918 38.2002L26.3918 32.8002L17.0918 37.5002Z" stroke="#252437" stroke-width="2" stroke-miterlimit="10" stroke-linecap="round"></path></g><defs><clipPath id="clip0"><rect x="0.891602" width="60.3" height="60.9" fill="white"></rect></clipPath></defs></svg> 