<?xml version="1.0" encoding="UTF-8"?> <svg xmlns="http://www.w3.org/2000/svg" width="59" height="58" viewBox="0 0 59 58" fill="none"><g clip-path="url(#clip0)"><path d="M32.2256 24.8756H33.5256C34.6256 24.8756 35.5256 23.9756 35.5256 22.8756V17.4756C35.5256 16.3756 36.4256 15.4756 37.5256 15.4756H39.5256" stroke="#0864EF" stroke-width="2" stroke-miterlimit="10" stroke-linecap="round"></path><path d="M32.2256 33.0757H33.5256C34.6256 33.0757 35.5256 33.9757 35.5256 35.0757V40.4757C35.5256 41.5757 36.4256 42.4757 37.5256 42.4757H39.5256" stroke="#0864EF" stroke-width="2" stroke-miterlimit="10" stroke-linecap="round"></path><path d="M25.9254 56.4756H6.82539C3.92539 56.4756 1.52539 54.1756 1.52539 51.2756V6.77559C1.52539 3.87559 3.92539 1.47559 6.82539 1.47559H25.9254C28.8254 1.47559 31.2254 3.87559 31.2254 6.77559V51.2756C31.2254 54.1756 28.8254 56.4756 25.9254 56.4756Z" stroke="#0864EF" stroke-width="2" stroke-miterlimit="10" stroke-linecap="round"></path><path d="M16.3252 53.4756C17.982 53.4756 19.3252 52.1324 19.3252 50.4756C19.3252 48.8187 17.982 47.4756 16.3252 47.4756C14.6683 47.4756 13.3252 48.8187 13.3252 50.4756C13.3252 52.1324 14.6683 53.4756 16.3252 53.4756Z" stroke="#0864EF" stroke-width="2" stroke-miterlimit="10" stroke-linecap="round"></path><path d="M14.5258 1.47559L13.9258 4.67559C13.7258 5.57559 14.4258 6.47559 15.4258 6.47559H17.3258C18.3258 6.47559 19.0258 5.57559 18.8258 4.67559L18.2258 1.47559" stroke="#0864EF" stroke-width="2" stroke-miterlimit="10" stroke-linecap="round"></path><path d="M16.3258 26.8757C18.2035 26.8757 19.7258 25.3535 19.7258 23.4757C19.7258 21.5979 18.2035 20.0757 16.3258 20.0757C14.448 20.0757 12.9258 21.5979 12.9258 23.4757C12.9258 25.3535 14.448 26.8757 16.3258 26.8757Z" stroke="#0864EF" stroke-width="2" stroke-miterlimit="10" stroke-linecap="round"></path><path d="M8.22559 37.8758C8.22559 33.3758 11.9256 29.6758 16.4256 29.6758C20.9256 29.6758 24.6256 33.3758 24.6256 37.8758" stroke="#0864EF" stroke-width="2" stroke-miterlimit="10" stroke-linecap="round"></path><path d="M49.826 9.57578C51.5933 9.57578 53.026 8.14309 53.026 6.37578C53.026 4.60847 51.5933 3.17578 49.826 3.17578C48.0587 3.17578 46.626 4.60847 46.626 6.37578C46.626 8.14309 48.0587 9.57578 49.826 9.57578Z" stroke="#252437" stroke-width="2" stroke-miterlimit="10"></path><path d="M42.2256 19.8758C42.2256 15.6758 45.6256 12.1758 49.9256 12.1758C54.2256 12.1758 57.6256 15.5758 57.6256 19.8758" stroke="#252437" stroke-width="2" stroke-miterlimit="10" stroke-linecap="round"></path><path d="M49.826 44.4757C51.5933 44.4757 53.026 43.043 53.026 41.2757C53.026 39.5084 51.5933 38.0757 49.826 38.0757C48.0587 38.0757 46.626 39.5084 46.626 41.2757C46.626 43.043 48.0587 44.4757 49.826 44.4757Z" stroke="#252437" stroke-width="2" stroke-miterlimit="10"></path><path d="M42.2256 54.8758C42.2256 50.6758 45.6256 47.1758 49.9256 47.1758C54.2256 47.1758 57.6256 50.5758 57.6256 54.8758" stroke="#252437" stroke-width="2" stroke-miterlimit="10" stroke-linecap="round"></path></g><defs><clipPath id="clip0"><rect x="0.525391" y="0.475586" width="58" height="57" fill="white"></rect></clipPath></defs></svg> 