<?xml version="1.0" encoding="UTF-8"?> <svg xmlns="http://www.w3.org/2000/svg" width="63" height="80" viewBox="0 0 63 80" fill="none"><path d="M31.209 59.0615L31.209 74.9118" stroke="#0864EF" stroke-width="2" stroke-miterlimit="10" stroke-linecap="round"></path><path d="M55.7094 31.3114C58.2094 31.5114 60.1094 33.6114 60.1094 36.2114V65.5114C60.1094 68.2114 57.9094 70.4114 55.2094 70.4114H40.8094C40.0094 70.4114 39.4094 71.0114 39.4094 71.8114V73.2114C39.4094 74.6114 38.2094 75.8114 36.8094 75.8114H26.5094C25.1094 75.8114 23.9094 74.6114 23.9094 73.2114V71.8114C23.9094 71.0114 23.3094 70.4114 22.5094 70.4114H7.00938C4.30938 70.4114 2.10938 68.2114 2.10938 65.5114V36.1114C2.10938 33.4114 4.30938 31.2114 7.00938 31.2114" stroke="#0864EF" stroke-width="2" stroke-miterlimit="10" stroke-linecap="round"></path><path d="M31.2094 67.6116C31.2094 66.1116 30.0094 64.9116 28.5094 64.9116H12.5094C9.80937 64.9116 7.60938 62.7116 7.60938 60.0116V29.8116C7.60938 27.1116 9.80937 24.9116 12.5094 24.9116H14.3094" stroke="#0864EF" stroke-width="2" stroke-miterlimit="10" stroke-linecap="round"></path><path d="M48.309 24.9116H50.809C53.509 24.9116 55.709 27.1116 55.709 29.8116V60.0116C55.709 62.7116 53.509 64.9116 50.809 64.9116H33.909C32.409 64.9116 31.209 66.1116 31.209 67.6116" stroke="#0864EF" stroke-width="2" stroke-miterlimit="10" stroke-linecap="round"></path><path d="M31.379 1.89746C21.4218 1.89746 13.4561 9.45864 13.4561 18.9101C13.4561 23.9509 15.713 28.4876 19.4304 31.5121C19.4304 31.5121 25.4047 38.4431 26.7323 48.5247H32.0428" stroke="#252437" stroke-width="2" stroke-miterlimit="10"></path><path d="M29.1228 25.3115H26.202C24.6089 25.3115 23.2812 24 23.2812 22.4263C23.2812 20.8525 24.6089 19.541 26.202 19.541C27.7952 19.541 29.1228 20.8525 29.1228 22.4263V43.2787" fill="white"></path><path d="M29.1228 25.3115H26.202C24.6089 25.3115 23.2812 24 23.2812 22.4263C23.2812 20.8525 24.6089 19.541 26.202 19.541C27.7952 19.541 29.1228 20.8525 29.1228 22.4263V43.2787" stroke="#252437" stroke-width="2" stroke-miterlimit="10"></path><path d="M33.7686 25.3115H36.6893C38.2825 25.3115 39.6101 24 39.6101 22.4263C39.6101 20.8525 38.2825 19.541 36.6893 19.541C35.0962 19.541 33.7686 20.8525 33.7686 22.4263V43.2787" fill="white"></path><path d="M33.7686 25.3115H36.6893C38.2825 25.3115 39.6101 24 39.6101 22.4263C39.6101 20.8525 38.2825 19.541 36.6893 19.541C35.0962 19.541 33.7686 20.8525 33.7686 22.4263V43.2787" stroke="#252437" stroke-width="2" stroke-miterlimit="10"></path><path d="M31.3796 1.89746C41.3368 1.89746 49.3025 9.45863 49.3025 18.9101C49.3025 23.9509 47.0456 28.4876 43.3282 31.5121C43.3282 31.5121 37.3539 38.4431 36.0263 48.5247H30.7158" stroke="#252437" stroke-width="2" stroke-miterlimit="10"></path><path d="M36.9549 48.5247H26.334C24.8736 48.5247 23.6787 47.3444 23.6787 45.9018C23.6787 44.4591 24.8736 43.2788 26.334 43.2788H36.9549C38.4153 43.2788 39.6102 44.4591 39.6102 45.9018C39.6102 47.3444 38.4153 48.5247 36.9549 48.5247Z" fill="white" stroke="#252437" stroke-width="2" stroke-miterlimit="10"></path><path d="M36.9549 53.7703H26.334C24.8736 53.7703 23.6787 52.59 23.6787 51.1474C23.6787 49.7047 24.8736 48.5244 26.334 48.5244H36.9549C38.4153 48.5244 39.6102 49.7047 39.6102 51.1474C39.6102 52.59 38.4153 53.7703 36.9549 53.7703Z" fill="white" stroke="#252437" stroke-width="2" stroke-miterlimit="10"></path><path d="M38.2167 53.7705H24.9404V56.2623C24.9404 57.0492 25.6042 57.7049 26.4008 57.7049H36.889C37.6856 57.7049 38.3494 57.0492 38.3494 56.2623V53.7705H38.2167Z" fill="white" stroke="#252437" stroke-width="2" stroke-miterlimit="10"></path></svg> 