<?xml version="1.0" encoding="UTF-8"?> <svg xmlns="http://www.w3.org/2000/svg" width="82" height="73" viewBox="0 0 82 73" fill="none"><path d="M0.540039 1.37061H5.63227C9.41506 1.37061 12.4704 4.13496 13.0524 7.77226L17.9991 42.1084H71.8312L80.5607 13.01H13.6343" stroke="#0864EF" stroke-width="2" stroke-miterlimit="10"></path><path d="M17.9992 42.1084H16.5443C13.3435 42.1084 10.7246 44.7273 10.7246 47.9281C10.7246 51.1289 13.3435 53.7478 16.5443 53.7478H64.5567" stroke="#0864EF" stroke-width="2" stroke-miterlimit="10" stroke-linecap="round"></path><path d="M26.0013 71.2068C29.6171 71.2068 32.5484 68.2756 32.5484 64.6597C32.5484 61.0438 29.6171 58.1125 26.0013 58.1125C22.3854 58.1125 19.4541 61.0438 19.4541 64.6597C19.4541 68.2756 22.3854 71.2068 26.0013 71.2068Z" stroke="#252437" stroke-width="2" stroke-miterlimit="10" stroke-linecap="round"></path><path d="M53.6448 71.2068C57.2607 71.2068 60.192 68.2756 60.192 64.6597C60.192 61.0438 57.2607 58.1125 53.6448 58.1125C50.0289 58.1125 47.0977 61.0438 47.0977 64.6597C47.0977 68.2756 50.0289 71.2068 53.6448 71.2068Z" stroke="#252437" stroke-width="2" stroke-miterlimit="10" stroke-linecap="round"></path></svg> 