<?xml version="1.0" encoding="UTF-8"?> <svg xmlns="http://www.w3.org/2000/svg" width="128" height="85" viewBox="0 0 128 85" fill="none"><path d="M74.2785 54.0016L22.9785 31.1641L74.2785 1.35156L125.578 31.1641L74.2785 54.0016Z" fill="white" stroke="#0864EF" stroke-width="2" stroke-miterlimit="10"></path><path d="M103.865 29.3637V46.9137H44.2402V29.3637V29.7012C44.2402 25.9887 57.6277 22.9512 74.0527 22.9512C90.4777 22.9512 103.865 25.9887 103.865 29.7012V29.3637Z" fill="white" stroke="#0864EF" stroke-width="2" stroke-miterlimit="10"></path><path d="M73.9395 54.0015C90.4044 54.0015 103.752 50.9794 103.752 47.2515C103.752 43.5235 90.4044 40.5015 73.9395 40.5015C57.4745 40.5015 44.127 43.5235 44.127 47.2515C44.127 50.9794 57.4745 54.0015 73.9395 54.0015Z" fill="white" stroke="#0864EF" stroke-width="2" stroke-miterlimit="10"></path><path d="M114.666 24.7515V52.2015" stroke="#0864EF" stroke-width="2" stroke-miterlimit="10"></path><path d="M119.952 66.8262H109.377V57.4887C109.377 54.5637 111.739 52.2012 114.664 52.2012C117.589 52.2012 119.952 54.5637 119.952 57.4887V66.8262Z" fill="white" stroke="#0864EF" stroke-width="2" stroke-miterlimit="10"></path><path d="M2.35938 53.7826L30.3719 66.3826L30.8219 65.7076L31.4969 64.1326C31.1594 63.0076 31.1594 61.7701 31.6094 60.5326C32.1719 59.4076 33.0719 58.5076 34.1969 58.0576L36.3344 53.3326L38.9219 54.4576L8.20938 40.6201" stroke="#252437" stroke-width="2" stroke-miterlimit="10"></path><path d="M68.8473 75.9453C70.5348 72.3453 73.1223 69.9828 74.6973 70.6578L42.6348 56.2578L40.4973 60.9828C40.8348 62.1078 40.8348 63.3453 40.3848 64.5828C39.9348 65.5953 39.1473 66.3828 38.2473 66.8328L37.5723 69.7578L68.7348 83.7078C67.1598 83.0328 67.1598 79.5453 68.8473 75.9453Z" stroke="#252437" stroke-width="2" stroke-miterlimit="10"></path><path d="M74.6967 70.6582C73.1217 69.9832 70.4217 72.2332 68.8467 75.9457C67.1592 79.5457 67.1592 83.0332 68.8467 83.8207C70.4217 84.4957 73.1217 82.2457 74.6967 78.5332C76.2717 74.9332 76.2717 71.3332 74.6967 70.6582Z" stroke="#252437" stroke-width="2" stroke-miterlimit="10"></path><path d="M8.20954 40.6206C6.63454 39.9456 3.93454 42.1956 2.35954 45.9081C0.784543 49.6206 0.672043 52.9956 2.35954 53.7831" stroke="#252437" stroke-width="2" stroke-miterlimit="10"></path><path d="M34.1973 58.058C35.3223 57.608 36.6723 57.608 37.9098 58.1705C39.1473 58.733 40.0473 59.7455 40.4973 60.983L42.6348 56.258L38.9223 54.458L36.3348 53.333L34.1973 58.058Z" stroke="#252437" stroke-width="2" stroke-miterlimit="10"></path><path d="M33.8592 66.833C32.8467 66.2705 32.1717 65.483 31.7217 64.583L30.8217 65.708L30.3717 66.383L26.6592 71.6705L29.5842 71.2205L30.1467 74.1455L33.0717 69.983L33.8592 66.833Z" stroke="#252437" stroke-width="2" stroke-miterlimit="10"></path><path d="M34.084 66.9455C33.9715 66.9455 33.9715 66.833 33.859 66.833L33.0715 70.0955L31.834 75.0455L34.4215 73.583L35.9965 76.058L37.5715 69.758L38.2465 66.833C37.009 67.3955 35.434 67.508 34.084 66.9455Z" stroke="#252437" stroke-width="2" stroke-miterlimit="10"></path></svg> 