<?xml version="1.0" encoding="UTF-8"?> <svg xmlns="http://www.w3.org/2000/svg" width="55" height="56" viewBox="0 0 55 56" fill="none"><path d="M27.4189 47.9574C38.5552 47.9574 47.5829 38.9297 47.5829 27.7934C47.5829 16.6571 38.5552 7.62939 27.4189 7.62939C16.2826 7.62939 7.25488 16.6571 7.25488 27.7934C7.25488 38.9297 16.2826 47.9574 27.4189 47.9574Z" stroke="#0864EF" stroke-width="2" stroke-miterlimit="10"></path><path d="M32.5156 25.4628C32.5156 23.0851 34.3839 21.2168 36.7617 21.2168C39.1394 21.2168 41.0077 23.0851 41.0077 25.4628" stroke="#0864EF" stroke-width="2" stroke-miterlimit="10" stroke-linecap="round"></path><path d="M13.833 25.4628C13.833 23.0851 15.7013 21.2168 18.079 21.2168C20.4568 21.2168 22.3251 23.0851 22.3251 25.4628" stroke="#0864EF" stroke-width="2" stroke-miterlimit="10" stroke-linecap="round"></path><path d="M34.7616 32.9773C34.7616 36.2154 31.4859 38.8134 27.4194 38.8134C23.3529 38.8134 20.0771 36.2154 20.0771 32.9773" stroke="#0864EF" stroke-width="2" stroke-miterlimit="10" stroke-linecap="round"></path><path d="M1.41895 10.0726V5.24193C1.41895 3.15809 3.02918 1.54785 5.11302 1.54785H8.99654" stroke="#252437" stroke-width="2" stroke-miterlimit="10" stroke-linecap="round"></path><path d="M53.5151 10.0726V5.24193C53.5151 3.15809 51.9049 1.54785 49.821 1.54785H45.9375" stroke="#252437" stroke-width="2" stroke-miterlimit="10" stroke-linecap="round"></path><path d="M53.5151 45.5142V50.3449C53.5151 52.334 51.9049 54.039 49.821 54.039H45.9375" stroke="#252437" stroke-width="2" stroke-miterlimit="10" stroke-linecap="round"></path><path d="M1.41895 45.5142V50.3449C1.41895 52.4287 3.02918 54.039 5.11302 54.039H8.99654" stroke="#252437" stroke-width="2" stroke-miterlimit="10" stroke-linecap="round"></path></svg> 