<?xml version="1.0" encoding="UTF-8"?> <svg xmlns="http://www.w3.org/2000/svg" width="56" height="58" viewBox="0 0 56 58" fill="none"><g clip-path="url(#clip0)"><path d="M11.1729 34.802V33.802V23.902C11.1729 14.502 18.7729 6.802 28.2729 6.802C37.6729 6.802 45.3728 14.402 45.3728 23.902V34.802" stroke="#0864EF" stroke-width="2" stroke-miterlimit="10" stroke-linecap="round"></path><path d="M30.7734 31.9021C30.7734 30.1021 32.2734 28.6021 34.0734 28.6021C35.8734 28.6021 37.3734 30.1021 37.3734 31.9021" stroke="#0864EF" stroke-width="2" stroke-miterlimit="10" stroke-linecap="round"></path><path d="M19.1729 31.9021C19.1729 30.1021 20.6729 28.6021 22.4729 28.6021C24.2729 28.6021 25.7729 30.1021 25.7729 31.9021" stroke="#0864EF" stroke-width="2" stroke-miterlimit="10" stroke-linecap="round"></path><path d="M34.2734 37.7019C34.7734 37.7019 35.1734 38.1019 35.0734 38.6019C34.6734 42.0019 31.7734 44.6019 28.2734 44.6019C24.7734 44.6019 21.8734 42.0019 21.4734 38.6019C21.3734 38.1019 21.7734 37.7019 22.2734 37.7019H34.2734Z" stroke="#0864EF" stroke-width="2" stroke-miterlimit="10" stroke-linecap="round"></path><path d="M29.373 19.2019H35.173C37.173 19.2019 38.773 20.8019 38.773 22.8019V25.1019C38.773 27.1019 40.373 28.7019 42.373 28.7019H45.373C47.373 28.7019 48.973 30.3019 48.973 32.3019C48.973 33.3019 48.573 34.2019 47.873 34.8019L45.273 37.4019" stroke="#0864EF" stroke-width="2" stroke-miterlimit="10" stroke-linecap="round"></path><path d="M26.473 19.2019H20.673C18.673 19.2019 17.073 20.8019 17.073 22.8019V25.1019C17.073 27.1019 15.473 28.7019 13.473 28.7019H10.473C8.47305 28.7019 6.87305 30.3019 6.87305 32.3019C6.87305 33.3019 7.27305 34.2019 7.97305 34.8019L11.173 36.9019" stroke="#0864EF" stroke-width="2" stroke-miterlimit="10" stroke-linecap="round"></path><path d="M45.3738 32.002V35.502C45.3738 44.902 37.7738 52.602 28.2738 52.602C18.8738 52.602 11.1738 45.002 11.1738 35.502V32.002" stroke="#0864EF" stroke-width="2" stroke-miterlimit="10" stroke-linecap="round"></path><path d="M2.22461 10.7062V5.87547C2.22461 3.79164 3.83485 2.1814 5.91869 2.1814H9.80221" stroke="#252437" stroke-width="2" stroke-miterlimit="10" stroke-linecap="round"></path><path d="M54.3208 10.7062V5.87547C54.3208 3.79164 52.7105 2.1814 50.6267 2.1814H46.7432" stroke="#252437" stroke-width="2" stroke-miterlimit="10" stroke-linecap="round"></path><path d="M54.3208 46.1477V50.9784C54.3208 52.9675 52.7105 54.6725 50.6267 54.6725H46.7432" stroke="#252437" stroke-width="2" stroke-miterlimit="10" stroke-linecap="round"></path><path d="M2.22461 46.1477V50.9784C2.22461 53.0623 3.83485 54.6725 5.91869 54.6725H9.80221" stroke="#252437" stroke-width="2" stroke-miterlimit="10" stroke-linecap="round"></path></g><defs><clipPath id="clip0"><rect x="0.773438" y="0.802002" width="55" height="56.5" fill="white"></rect></clipPath></defs></svg> 