<?xml version="1.0" encoding="UTF-8"?> <svg xmlns="http://www.w3.org/2000/svg" width="64" height="62" viewBox="0 0 64 62" fill="none"><g clip-path="url(#clip0)"><path d="M58 31.751V25.651C58 21.251 54.5 17.751 50.1 17.751H20.5C17.4 17.751 15 20.251 15 23.251V50.351C15 54.251 11.9 57.351 8 57.351C4.1 57.351 1 54.251 1 50.351V9.65098C1 5.25098 4.5 1.75098 8.9 1.75098H20.5C22.6 1.75098 24.6 2.55098 26.1 4.05098L30.9 8.85098C31.5 9.45098 32.3 9.85098 33.2 9.85098H45.7C49.1 9.85098 51.9 12.651 51.9 16.051V17.751" stroke="#0864EF" stroke-width="2" stroke-miterlimit="10" stroke-linecap="round"></path><path d="M8.2002 57.3511H34.0002" stroke="#0864EF" stroke-width="2" stroke-miterlimit="10" stroke-linecap="round"></path><path d="M54.9004 42.751V44.651H52.9004" stroke="#252437" stroke-miterlimit="10" stroke-linecap="round"></path><path d="M50 60.751C57.1797 60.751 63 54.9307 63 47.751C63 40.5713 57.1797 34.751 50 34.751C42.8203 34.751 37 40.5713 37 47.751C37 54.9307 42.8203 60.751 50 60.751Z" stroke="#252437" stroke-width="2" stroke-miterlimit="10"></path><path d="M44.5 47.5508C44.5 44.5508 47 42.0508 50 42.0508C51.7 42.0508 53.2 42.8508 54.2 44.0508" stroke="#252437" stroke-width="2" stroke-miterlimit="10" stroke-linecap="round"></path><path d="M55.4994 47.5508C55.4994 50.5508 52.9994 53.0508 49.9994 53.0508C48.5994 53.0508 47.3994 52.5508 46.3994 51.7508" stroke="#252437" stroke-width="2" stroke-miterlimit="10" stroke-linecap="round"></path><path d="M45.7998 53.4509V51.1509H48.0998" stroke="#252437" stroke-miterlimit="10" stroke-linecap="round"></path></g><defs><clipPath id="clip0"><rect y="0.750977" width="64" height="61" fill="white"></rect></clipPath></defs></svg> 