<?xml version="1.0" encoding="UTF-8"?> <svg xmlns="http://www.w3.org/2000/svg" width="61" height="49" viewBox="0 0 61 49" fill="none"><g clip-path="url(#clip0)"><path d="M25.4676 8.61514H19.5676C17.4676 8.61514 15.7676 6.91514 15.7676 4.81514C15.7676 2.71514 17.4676 1.01514 19.5676 1.01514H39.3676" stroke="#252437" stroke-width="2" stroke-miterlimit="10" stroke-linecap="round"></path><path d="M33.4678 1.01514H39.3678" stroke="#252437" stroke-width="2" stroke-miterlimit="10" stroke-linecap="round"></path><path d="M21.5674 8.61523H26.9674C28.7674 8.61523 30.2674 10.1152 30.2674 11.9152V14.0152" stroke="#252437" stroke-width="2" stroke-miterlimit="10" stroke-linecap="round"></path><path d="M22.4678 29.6152H18.6678V25.8152C18.6678 25.3152 18.2678 24.8152 17.6678 24.8152H13.8678C13.3678 24.8152 12.8678 25.2152 12.8678 25.8152V29.6152H8.96777C8.46777 29.6152 7.96777 30.0152 7.96777 30.6152V34.4152C7.96777 34.9152 8.36777 35.4152 8.96777 35.4152H12.7678V39.2152C12.7678 39.7152 13.1678 40.2152 13.7678 40.2152H17.5678C18.0678 40.2152 18.5678 39.8152 18.5678 39.2152V35.4152H22.3678C22.8678 35.4152 23.3678 35.0152 23.3678 34.4152V30.6152C23.3678 30.0152 22.9678 29.6152 22.4678 29.6152Z" stroke="#252437" stroke-width="2" stroke-miterlimit="10" stroke-linecap="round"></path><path d="M55.6674 42.215C50.9675 47.415 43.1674 48.615 37.1674 44.915C35.4674 43.815 33.5674 43.115 31.5674 43.015C31.1674 43.015 30.6675 43.015 30.2675 43.015C29.7675 43.015 29.3675 43.015 28.8675 43.115C26.8675 43.315 25.0675 43.915 23.3675 45.015C16.5675 49.215 7.56745 47.115 3.36745 40.315C1.66745 37.515 0.86745 34.215 1.26745 31.015C1.96745 24.715 7.96745 18.715 14.0674 18.015C14.5674 17.915 15.1674 17.915 15.6674 17.915H44.7674C45.2674 17.915 45.8675 17.915 46.3675 18.015C52.5675 18.715 58.5674 24.615 59.1674 30.815C59.7674 34.915 58.4674 39.115 55.6674 42.215Z" stroke="#0864EF" stroke-width="2" stroke-miterlimit="10" stroke-linecap="round"></path><path d="M38.7672 35.415C40.3688 35.415 41.6672 34.1166 41.6672 32.515C41.6672 30.9134 40.3688 29.615 38.7672 29.615C37.1656 29.615 35.8672 30.9134 35.8672 32.515C35.8672 34.1166 37.1656 35.415 38.7672 35.415Z" stroke="#252437" stroke-width="2" stroke-miterlimit="10" stroke-linecap="round"></path><path d="M44.6676 29.5151C46.2692 29.5151 47.5676 28.2167 47.5676 26.6151C47.5676 25.0135 46.2692 23.7151 44.6676 23.7151C43.066 23.7151 41.7676 25.0135 41.7676 26.6151C41.7676 28.2167 43.066 29.5151 44.6676 29.5151Z" stroke="#252437" stroke-width="2" stroke-miterlimit="10" stroke-linecap="round"></path><path d="M44.6676 41.3151C46.2692 41.3151 47.5676 40.0168 47.5676 38.4151C47.5676 36.8135 46.2692 35.5151 44.6676 35.5151C43.066 35.5151 41.7676 36.8135 41.7676 38.4151C41.7676 40.0168 43.066 41.3151 44.6676 41.3151Z" stroke="#252437" stroke-width="2" stroke-miterlimit="10" stroke-linecap="round"></path><path d="M50.567 35.415C52.1686 35.415 53.467 34.1166 53.467 32.515C53.467 30.9134 52.1686 29.615 50.567 29.615C48.9654 29.615 47.667 30.9134 47.667 32.515C47.667 34.1166 48.9654 35.415 50.567 35.415Z" stroke="#252437" stroke-width="2" stroke-miterlimit="10" stroke-linecap="round"></path><path d="M26.0674 17.9152V14.3152H34.4674V17.9152" stroke="#0864EF" stroke-width="2" stroke-miterlimit="10" stroke-linecap="round"></path></g><defs><clipPath id="clip0"><rect x="0.166992" y="0.0151367" width="60.2" height="48" fill="white"></rect></clipPath></defs></svg> 