<?xml version="1.0" encoding="UTF-8"?> <svg xmlns="http://www.w3.org/2000/svg" width="84" height="77" viewBox="0 0 84 77" fill="none"><g clip-path="url(#clip0)"><path d="M42.0908 1.71704L10.0908 24.317H73.9908L42.0908 1.71704Z" stroke="#0864EF" stroke-width="2" stroke-miterlimit="10"></path><path d="M74.791 29.417H9.29102C8.19102 29.417 7.29102 28.517 7.29102 27.417V26.217C7.29102 25.117 8.19102 24.217 9.29102 24.217H74.791C75.891 24.217 76.791 25.117 76.791 26.217V27.417C76.791 28.517 75.891 29.417 74.791 29.417Z" stroke="#0864EF" stroke-width="2" stroke-miterlimit="10"></path><path d="M76.791 70.117H7.29102C6.19102 70.117 5.29102 69.217 5.29102 68.117V66.917C5.29102 65.817 6.19102 64.917 7.29102 64.917H76.791C77.891 64.917 78.791 65.817 78.791 66.917V68.117C78.791 69.217 77.991 70.117 76.791 70.117Z" stroke="#0864EF" stroke-width="2" stroke-miterlimit="10"></path><path d="M80.291 75.2171H3.79102C2.69102 75.2171 1.79102 74.3171 1.79102 73.2171V72.0171C1.79102 70.9171 2.69102 70.0171 3.79102 70.0171H80.291C81.391 70.0171 82.291 70.9171 82.291 72.0171V73.2171C82.291 74.3171 81.391 75.2171 80.291 75.2171Z" stroke="#0864EF" stroke-width="2" stroke-miterlimit="10"></path><path d="M42.0906 20.617C44.1341 20.617 45.7906 18.9605 45.7906 16.917C45.7906 14.8736 44.1341 13.217 42.0906 13.217C40.0472 13.217 38.3906 14.8736 38.3906 16.917C38.3906 18.9605 40.0472 20.617 42.0906 20.617Z" stroke="#0864EF" stroke-width="2" stroke-miterlimit="10"></path><path d="M21.6906 33.9171H13.5906C12.3906 33.9171 11.3906 32.9171 11.3906 31.7171C11.3906 30.5171 12.3906 29.5171 13.5906 29.5171H21.6906C22.8906 29.5171 23.8906 30.5171 23.8906 31.7171C23.9906 32.9171 22.9906 33.9171 21.6906 33.9171Z" stroke="#252437" stroke-width="2" stroke-miterlimit="10"></path><path d="M21.6906 64.9171H13.5906C12.3906 64.9171 11.3906 63.9171 11.3906 62.7171C11.3906 61.5171 12.3906 60.5171 13.5906 60.5171H21.6906C22.8906 60.5171 23.8906 61.5171 23.8906 62.7171C23.9906 63.9171 22.9906 64.9171 21.6906 64.9171Z" stroke="#252437" stroke-width="2" stroke-miterlimit="10"></path><path d="M20.9906 33.917H14.3906V60.517H20.9906V33.917Z" stroke="#252437" stroke-width="2" stroke-miterlimit="10"></path><path d="M37.9904 33.9171H29.8904C28.6904 33.9171 27.6904 32.9171 27.6904 31.7171C27.6904 30.5171 28.6904 29.5171 29.8904 29.5171H37.9904C39.1904 29.5171 40.1904 30.5171 40.1904 31.7171C40.1904 32.9171 39.1904 33.9171 37.9904 33.9171Z" stroke="#252437" stroke-width="2" stroke-miterlimit="10"></path><path d="M37.9904 64.9171H29.8904C28.6904 64.9171 27.6904 63.9171 27.6904 62.7171C27.6904 61.5171 28.6904 60.5171 29.8904 60.5171H37.9904C39.1904 60.5171 40.1904 61.5171 40.1904 62.7171C40.1904 63.9171 39.1904 64.9171 37.9904 64.9171Z" stroke="#252437" stroke-width="2" stroke-miterlimit="10"></path><path d="M37.1908 33.917H30.5908V60.517H37.1908V33.917Z" stroke="#252437" stroke-width="2" stroke-miterlimit="10"></path><path d="M54.1906 33.9171H46.0906C44.8906 33.9171 43.8906 32.9171 43.8906 31.7171C43.8906 30.5171 44.8906 29.5171 46.0906 29.5171H54.1906C55.3906 29.5171 56.3906 30.5171 56.3906 31.7171C56.4906 32.9171 55.4906 33.9171 54.1906 33.9171Z" stroke="#252437" stroke-width="2" stroke-miterlimit="10"></path><path d="M54.1906 64.9171H46.0906C44.8906 64.9171 43.8906 63.9171 43.8906 62.7171C43.8906 61.5171 44.8906 60.5171 46.0906 60.5171H54.1906C55.3906 60.5171 56.3906 61.5171 56.3906 62.7171C56.4906 63.9171 55.4906 64.9171 54.1906 64.9171Z" stroke="#252437" stroke-width="2" stroke-miterlimit="10"></path><path d="M53.4906 33.917H46.8906V60.517H53.4906V33.917Z" stroke="#252437" stroke-width="2" stroke-miterlimit="10"></path><path d="M70.4904 33.9171H62.3904C61.1904 33.9171 60.1904 32.9171 60.1904 31.7171C60.1904 30.5171 61.1904 29.5171 62.3904 29.5171H70.4904C71.6904 29.5171 72.6904 30.5171 72.6904 31.7171C72.6904 32.9171 71.6904 33.9171 70.4904 33.9171Z" stroke="#252437" stroke-width="2" stroke-miterlimit="10"></path><path d="M70.4904 64.9171H62.3904C61.1904 64.9171 60.1904 63.9171 60.1904 62.7171C60.1904 61.5171 61.1904 60.5171 62.3904 60.5171H70.4904C71.6904 60.5171 72.6904 61.5171 72.6904 62.7171C72.6904 63.9171 71.6904 64.9171 70.4904 64.9171Z" stroke="#252437" stroke-width="2" stroke-miterlimit="10"></path><path d="M69.6908 33.917H63.0908V60.517H69.6908V33.917Z" stroke="#252437" stroke-width="2" stroke-miterlimit="10"></path></g><defs><clipPath id="clip0"><rect x="0.791016" y="0.51709" width="82.5" height="75.7" fill="white"></rect></clipPath></defs></svg> 