<?xml version="1.0" encoding="UTF-8"?> <svg xmlns="http://www.w3.org/2000/svg" width="49" height="49" viewBox="0 0 49 49" fill="none"><rect x="1.30469" y="1.18555" width="46.6629" height="46.6629" rx="7" stroke="#0864EF" stroke-width="2"></rect><g clip-path="url(#clip0)"><path d="M15.0342 41.5658H21.6342C20.7342 40.5658 20.2342 39.1658 20.4342 37.6658C20.7342 35.4658 22.5342 33.7658 24.6342 33.4658C27.5342 33.1658 30.0342 35.3658 30.0342 38.2658C30.0342 39.5658 29.5342 40.6658 28.7342 41.5658H35.3342C36.4342 41.5658 37.3342 40.6658 37.3342 39.5658V33.6658C37.8342 33.7658 38.3342 33.8658 38.8342 33.8658C41.8342 33.8658 44.1342 31.1658 43.5342 28.0658C43.1342 26.1658 41.6342 24.6658 39.7342 24.2658C38.8342 24.0658 38.0342 24.1658 37.3342 24.3658V18.4658" stroke="#0864EF" stroke-width="2" stroke-miterlimit="10" stroke-linecap="round"></path><path d="M34.2343 12.9657H28.7343C28.9343 12.2657 28.9343 11.4657 28.7343 10.6657C28.2343 8.86571 26.7343 7.46571 24.9343 7.16571C21.9343 6.66571 19.2343 8.96571 19.2343 11.9657C19.2343 12.3657 19.2343 12.7657 19.3343 13.0657H13.9343C12.8343 13.0657 11.9343 13.9657 11.9343 15.0657V20.9657C11.2343 20.7657 10.3343 20.6657 9.53427 20.8657C7.63427 20.9657 6.13427 22.4657 5.73427 24.3657C5.13427 27.4657 7.53427 30.1657 10.4343 30.1657C10.9343 30.1657 11.4343 30.0657 11.9343 29.9657V35.8657" stroke="#252437" stroke-width="2" stroke-miterlimit="10" stroke-linecap="round"></path></g><defs><clipPath id="clip0"><rect x="4.63574" y="6.03149" width="40" height="36.6" fill="white"></rect></clipPath></defs></svg> 