<?xml version="1.0" encoding="UTF-8"?> <svg xmlns="http://www.w3.org/2000/svg" width="86" height="78" viewBox="0 0 86 78" fill="none"><path d="M66.0515 38.8377C76.425 38.8377 84.8344 30.4283 84.8344 20.0548C84.8344 9.6813 76.425 1.27191 66.0515 1.27191C55.6779 1.27191 47.2686 9.6813 47.2686 20.0548C47.2686 30.4283 55.6779 38.8377 66.0515 38.8377Z" stroke="#252437" stroke-width="2" stroke-miterlimit="10"></path><path d="M75.6002 25.3767C73.7219 28.5072 70.2785 30.542 66.3654 30.542C61.0435 30.542 56.5043 26.6289 55.7217 21.4636" stroke="#252437" stroke-width="2" stroke-miterlimit="10"></path><mask id="path-3-inside-1" fill="white"><path d="M58.6951 24.4376L55.8777 22.0897L53.5299 24.9072L53.2168 22.7158L55.5647 19.8984L58.5387 22.2462L58.6951 24.4376Z"></path></mask><path d="M58.6951 24.4376L57.4148 25.974L61.0248 28.9824L60.6901 24.2951L58.6951 24.4376ZM55.8777 22.0897L57.1581 20.5533L55.6217 19.2729L54.3413 20.8093L55.8777 22.0897ZM53.5299 24.9072L51.55 25.19L52.1862 29.6436L55.0663 26.1875L53.5299 24.9072ZM53.2168 22.7158L51.6804 21.4354L51.1112 22.1185L51.2369 22.9987L53.2168 22.7158ZM55.5647 19.8984L56.8039 18.3286L55.2752 17.1217L54.0282 18.618L55.5647 19.8984ZM58.5387 22.2462L60.5336 22.1038L60.4707 21.2234L59.7779 20.6765L58.5387 22.2462ZM59.9755 22.9011L57.1581 20.5533L54.5974 23.6262L57.4148 25.974L59.9755 22.9011ZM54.3413 20.8093L51.9934 23.6268L55.0663 26.1875L57.4142 23.3701L54.3413 20.8093ZM55.5098 24.6243L55.1967 22.433L51.2369 22.9987L51.55 25.19L55.5098 24.6243ZM54.7532 23.9962L57.1011 21.1787L54.0282 18.618L51.6804 21.4354L54.7532 23.9962ZM54.3254 21.4681L57.2994 23.816L59.7779 20.6765L56.8039 18.3286L54.3254 21.4681ZM56.5437 22.3887L56.7002 24.58L60.6901 24.2951L60.5336 22.1038L56.5437 22.3887Z" fill="#252437" mask="url(#path-3-inside-1)"></path><path d="M56.5039 14.7331C58.3822 11.6026 61.8257 9.56781 65.7388 9.56781C71.0606 9.56781 75.5998 13.4809 76.3824 18.6462" stroke="#252437" stroke-width="2" stroke-miterlimit="10"></path><mask id="path-6-inside-2" fill="white"><path d="M73.4072 15.6721L76.2246 18.02L78.5725 15.2026L78.8856 17.3939L76.5377 20.2113L73.5637 17.8635L73.4072 15.6721Z"></path></mask><path d="M73.4072 15.6721L74.6876 14.1357L71.0776 11.1273L71.4123 15.8146L73.4072 15.6721ZM76.2246 18.02L74.9443 19.5564L76.4807 20.8368L77.7611 19.3004L76.2246 18.02ZM78.5725 15.2026L80.5524 14.9197L79.9161 10.4661L77.0361 13.9222L78.5725 15.2026ZM78.8856 17.3939L80.422 18.6743L80.9912 17.9912L80.8655 17.1111L78.8856 17.3939ZM76.5377 20.2113L75.2984 21.7811L76.8272 22.988L78.0742 21.4917L76.5377 20.2113ZM73.5637 17.8635L71.5688 18.0059L71.6317 18.8863L72.3244 19.4333L73.5637 17.8635ZM72.1269 17.2086L74.9443 19.5564L77.505 16.4836L74.6876 14.1357L72.1269 17.2086ZM77.7611 19.3004L80.1089 16.4829L77.0361 13.9222L74.6882 16.7396L77.7611 19.3004ZM76.5926 15.4854L76.9057 17.6768L80.8655 17.1111L80.5524 14.9197L76.5926 15.4854ZM77.3491 16.1135L75.0013 18.931L78.0742 21.4917L80.422 18.6743L77.3491 16.1135ZM77.777 18.6416L74.803 16.2937L72.3244 19.4333L75.2984 21.7811L77.777 18.6416ZM75.5586 17.721L75.4021 15.5297L71.4123 15.8146L71.5688 18.0059L75.5586 17.721Z" fill="#252437" mask="url(#path-6-inside-2)"></path><path d="M70.7476 41.8118V67.0121C70.7476 72.1774 66.5214 76.4036 61.3561 76.4036H11.2684C6.10311 76.4036 1.87695 72.1774 1.87695 67.0121V20.0549C1.87695 14.8896 6.10311 10.6635 11.2684 10.6635H46.0168" stroke="#0864EF" stroke-width="2" stroke-miterlimit="10"></path><path d="M50.0858 35.8639C48.8336 36.8031 47.2684 37.2726 45.7032 37.2726C41.3205 37.2726 37.877 33.8291 37.877 29.4464C37.877 25.6898 40.5379 22.5594 43.9814 21.7767" stroke="#0864EF" stroke-width="2" stroke-miterlimit="10"></path><path d="M23.6312 41.6553L12.2049 62.3165C11.1093 64.3513 12.518 67.0122 15.0223 67.0122H56.0317C58.5361 67.0122 60.1013 64.1948 58.6926 62.0034L53.2142 54.1772C52.2751 52.7685 50.3968 52.4554 48.9881 53.2381L45.2315 55.5859C43.9793 56.3686 42.2576 56.212 41.1619 54.9598L28.64 40.8727C27.2312 39.4639 24.5703 39.777 23.6312 41.6553Z" stroke="#0864EF" stroke-width="2" stroke-miterlimit="10"></path></svg> 