<?xml version="1.0" encoding="UTF-8"?> <svg xmlns="http://www.w3.org/2000/svg" width="54" height="64" viewBox="0 0 54 64" fill="none"><g clip-path="url(#clip0)"><path d="M24.3617 42.7098V35.6098C24.3617 32.9098 22.1617 30.8098 19.5617 30.8098H6.76172C3.96172 30.8098 1.76172 28.6098 1.76172 25.8098V22.5098" stroke="#0864EF" stroke-width="2" stroke-miterlimit="10" stroke-linecap="round"></path><path d="M27.9619 25.7097V20.8097C27.9619 19.0097 29.4619 17.5097 31.2619 17.5097H40.0619C41.9619 17.5097 43.5619 15.9097 43.5619 14.0097V11.7097" stroke="#0864EF" stroke-width="2" stroke-miterlimit="10" stroke-linecap="round"></path><path d="M32.6621 42.7097V31.8097C32.6621 29.3097 34.7621 27.2097 37.2621 27.2097H52.8621" stroke="#0864EF" stroke-width="2" stroke-miterlimit="10" stroke-linecap="round"></path><path d="M20.7615 42.7098V40.5098C20.7615 37.8098 18.5615 35.5098 15.7615 35.5098H6.56152" stroke="#0864EF" stroke-width="2" stroke-miterlimit="10" stroke-linecap="round"></path><path d="M27.9619 42.7097V7.90967" stroke="#0864EF" stroke-width="2" stroke-miterlimit="10" stroke-linecap="round"></path><path d="M20.3613 16.5098L27.9613 24.1098" stroke="#0864EF" stroke-width="2" stroke-miterlimit="10" stroke-linecap="round"></path><path d="M12.7617 56.1097C16.0617 51.3097 21.5617 48.2097 27.7617 48.2097C33.3617 48.2097 38.3617 50.7097 41.6617 54.7097" stroke="#252437" stroke-width="2" stroke-miterlimit="10" stroke-linecap="round"></path><path d="M17.3613 59.6097C19.5613 56.2097 23.3613 53.9097 27.7613 53.9097C31.7613 53.9097 35.2613 55.8097 37.5613 58.7097" stroke="#252437" stroke-width="2" stroke-miterlimit="10" stroke-linecap="round"></path><path d="M22.0615 62.9096C23.2615 60.9096 25.3615 59.6096 27.7615 59.6096C30.1615 59.6096 32.2615 60.9096 33.4615 62.8096" stroke="#252437" stroke-width="2" stroke-miterlimit="10" stroke-linecap="round"></path><path d="M27.9619 7.90967C29.6188 7.90967 30.9619 6.56652 30.9619 4.90967C30.9619 3.25281 29.6188 1.90967 27.9619 1.90967C26.3051 1.90967 24.9619 3.25281 24.9619 4.90967C24.9619 6.56652 26.3051 7.90967 27.9619 7.90967Z" stroke="#0864EF" stroke-width="2" stroke-miterlimit="10" stroke-linecap="round"></path><path d="M42.7617 27.2096L47.4617 22.6096" stroke="#0864EF" stroke-width="2" stroke-miterlimit="10" stroke-linecap="round"></path></g><defs><clipPath id="clip0"><rect x="0.761719" y="0.909668" width="53.1" height="63" fill="white"></rect></clipPath></defs></svg> 