<?xml version="1.0" encoding="UTF-8"?> <svg xmlns="http://www.w3.org/2000/svg" width="106" height="80" viewBox="0 0 106 80" fill="none"><g clip-path="url(#clip0)"><path d="M63.3143 52.0596H50.1143V65.1688H63.3143V52.0596Z" stroke="#252437" stroke-width="2" stroke-miterlimit="10"></path><path d="M39.2633 3.53765L12.7637 18.8376L15.1137 22.9078L41.6133 7.60785L39.2633 3.53765Z" fill="white" stroke="#0864EF" stroke-width="2" stroke-miterlimit="10"></path><path d="M40.3145 5.25972L57.6145 43.6597L59.7145 42.7597L44.6145 3.45972L40.3145 5.25972Z" fill="white" stroke="#0864EF" stroke-width="2" stroke-miterlimit="10"></path><path d="M97.9146 78.3597H7.61465C4.01465 78.3597 1.01465 75.4597 1.01465 71.7597C1.01465 68.1597 3.91465 65.1597 7.61465 65.1597H97.9146C101.515 65.1597 104.515 68.0597 104.515 71.7597C104.515 75.3597 101.615 78.3597 97.9146 78.3597Z" stroke="#0864EF" stroke-width="2" stroke-miterlimit="10"></path><path d="M46.5145 75.9596C48.8341 75.9596 50.7145 74.0792 50.7145 71.7596C50.7145 69.44 48.8341 67.5596 46.5145 67.5596C44.1949 67.5596 42.3145 69.44 42.3145 71.7596C42.3145 74.0792 44.1949 75.9596 46.5145 75.9596Z" fill="#0864EF"></path><path d="M61.4148 75.9596C63.7344 75.9596 65.6148 74.0792 65.6148 71.7596C65.6148 69.44 63.7344 67.5596 61.4148 67.5596C59.0952 67.5596 57.2148 69.44 57.2148 71.7596C57.2148 74.0792 59.0952 75.9596 61.4148 75.9596Z" fill="#0864EF"></path><path d="M76.4148 75.9596C78.7344 75.9596 80.6148 74.0792 80.6148 71.7596C80.6148 69.44 78.7344 67.5596 76.4148 67.5596C74.0953 67.5596 72.2148 69.44 72.2148 71.7596C72.2148 74.0792 74.0953 75.9596 76.4148 75.9596Z" fill="#0864EF"></path><path d="M91.3143 75.9596C93.6339 75.9596 95.5143 74.0792 95.5143 71.7596C95.5143 69.44 93.6339 67.5596 91.3143 67.5596C88.9947 67.5596 87.1143 69.44 87.1143 71.7596C87.1143 74.0792 88.9947 75.9596 91.3143 75.9596Z" fill="#0864EF"></path><path d="M32.4146 78.3598H6.61465C3.51465 78.3598 1.01465 75.8598 1.01465 72.7598V52.8598C1.01465 49.7598 3.51465 47.2598 6.61465 47.2598H32.4146C35.5146 47.2598 38.0146 49.7598 38.0146 52.8598V72.6598C38.1146 75.7598 35.6147 78.3598 32.4146 78.3598Z" fill="white" stroke="#0864EF" stroke-width="2" stroke-miterlimit="10"></path><path d="M4.73828 53.397V68.997" stroke="#252437" stroke-width="2" stroke-miterlimit="10"></path><path d="M8.15137 53.397V68.997" stroke="#252437" stroke-width="2" stroke-miterlimit="10"></path><path d="M11.5645 53.397V68.997" stroke="#252437" stroke-width="2" stroke-miterlimit="10"></path><path d="M3.88574 56.697H5.59207" stroke="#252437" stroke-width="2" stroke-miterlimit="10"></path><path d="M7.29883 60.2969H9.00516" stroke="#252437" stroke-width="2" stroke-miterlimit="10"></path><path d="M10.7109 66.2969H12.4173" stroke="#252437" stroke-width="2" stroke-miterlimit="10"></path><path d="M23.1564 69.9596C24.1506 69.9596 24.9564 69.1537 24.9564 68.1596C24.9564 67.1655 24.1506 66.3596 23.1564 66.3596C22.1623 66.3596 21.3564 67.1655 21.3564 68.1596C21.3564 69.1537 22.1623 69.9596 23.1564 69.9596Z" fill="#252437"></path><path d="M27.9563 69.9596C28.9504 69.9596 29.7563 69.1537 29.7563 68.1596C29.7563 67.1655 28.9504 66.3596 27.9563 66.3596C26.9621 66.3596 26.1562 67.1655 26.1562 68.1596C26.1562 69.1537 26.9621 69.9596 27.9563 69.9596Z" fill="#252437"></path><path d="M32.7561 69.9596C33.7502 69.9596 34.5561 69.1537 34.5561 68.1596C34.5561 67.1655 33.7502 66.3596 32.7561 66.3596C31.7619 66.3596 30.9561 67.1655 30.9561 68.1596C30.9561 69.1537 31.7619 69.9596 32.7561 69.9596Z" fill="#252437"></path><path d="M33.3141 54.3596H15.4141V63.3596H33.3141V54.3596Z" fill="white" stroke="#252437" stroke-width="2" stroke-miterlimit="10"></path><path d="M26.1146 47.2596H7.01465L13.0146 19.0596H20.1146L26.1146 47.2596Z" stroke="#0864EF" stroke-width="2" stroke-miterlimit="10"></path><path d="M16.615 26.8597C20.5915 26.8597 23.815 23.6362 23.815 19.6597C23.815 15.6833 20.5915 12.4597 16.615 12.4597C12.6386 12.4597 9.41504 15.6833 9.41504 19.6597C9.41504 23.6362 12.6386 26.8597 16.615 26.8597Z" fill="white" stroke="#0864EF" stroke-width="2" stroke-miterlimit="10"></path><path d="M40.5148 10.7597C43.1658 10.7597 45.3148 8.61063 45.3148 5.95967C45.3148 3.3087 43.1658 1.15967 40.5148 1.15967C37.8639 1.15967 35.7148 3.3087 35.7148 5.95967C35.7148 8.61063 37.8639 10.7597 40.5148 10.7597Z" fill="white" stroke="#0864EF" stroke-width="2" stroke-miterlimit="10"></path><path d="M53.2148 48.8598C53.6148 46.5598 55.9148 45.0598 58.2148 45.4598C60.5148 45.8598 62.0148 48.1598 61.6148 50.4598" fill="white"></path><path d="M53.2148 48.8598C53.6148 46.5598 55.9148 45.0598 58.2148 45.4598C60.5148 45.8598 62.0148 48.1598 61.6148 50.4598" stroke="#0864EF" stroke-width="2" stroke-miterlimit="10"></path><path d="M58.715 43.1597L58.415 45.5597" stroke="#0864EF" stroke-width="2" stroke-miterlimit="10"></path></g><defs><clipPath id="clip0"><rect x="0.0146484" y="0.159668" width="105.5" height="79.2" fill="white"></rect></clipPath></defs></svg> 