<?xml version="1.0" encoding="UTF-8"?> <svg xmlns="http://www.w3.org/2000/svg" width="41" height="57" viewBox="0 0 41 57" fill="none"><g clip-path="url(#clip0)"><path d="M20.9678 31.012C20.9678 33.812 18.7678 36.012 15.9678 36.012C13.1678 36.012 10.9678 33.812 10.9678 31.012" stroke="#252437" stroke-width="2" stroke-miterlimit="10" stroke-linecap="round"></path><path d="M34.4678 46.012C34.4678 51.012 30.4678 55.012 25.4678 55.012C20.4678 55.012 16.4678 51.012 16.4678 46.012V37.012" stroke="#252437" stroke-width="2" stroke-miterlimit="10" stroke-linecap="round"></path><path d="M39.0682 44.1119C36.5682 46.6119 32.3682 46.6119 29.8682 44.1119C27.3682 41.6119 27.3682 37.4119 29.8682 34.9119C32.3682 32.4119 36.5682 32.4119 39.0682 34.9119" stroke="#252437" stroke-width="2" stroke-miterlimit="10" stroke-linecap="round"></path><path d="M34.4678 42.012C35.8485 42.012 36.9678 40.8927 36.9678 39.512C36.9678 38.1313 35.8485 37.012 34.4678 37.012C33.0871 37.012 31.9678 38.1313 31.9678 39.512C31.9678 40.8927 33.0871 42.012 34.4678 42.012Z" stroke="#0864EF" stroke-width="2" stroke-miterlimit="10" stroke-linecap="round"></path><path d="M22.1674 2.71191C27.2674 5.11191 30.7674 10.2119 30.7674 16.2119C30.7674 24.4119 24.0674 31.1119 15.8674 31.1119C7.66738 31.1119 1.06738 24.3119 1.06738 16.1119C1.06738 10.2119 4.56738 5.01191 9.66738 2.71191" stroke="#0864EF" stroke-width="2" stroke-miterlimit="10" stroke-linecap="round"></path><path d="M10.167 1.01196V3.91196" stroke="#0864EF" stroke-width="2" stroke-miterlimit="10" stroke-linecap="round"></path><path d="M21.667 1.01196V3.91196" stroke="#0864EF" stroke-width="2" stroke-miterlimit="10" stroke-linecap="round"></path></g><defs><clipPath id="clip0"><rect x="0.0673828" y="0.0119629" width="40.9" height="56" fill="white"></rect></clipPath></defs></svg> 