<?xml version="1.0" encoding="UTF-8"?> <svg xmlns="http://www.w3.org/2000/svg" width="94" height="82" viewBox="0 0 94 82" fill="none"><path d="M12.9521 33.0771V7.33361C12.9521 3.96531 15.719 1.31879 18.967 1.31879H50.1238C53.4921 1.31879 56.1386 4.08561 56.1386 7.33361V23.0925" stroke="#0864EF" stroke-width="2" stroke-miterlimit="10"></path><path d="M56.2597 62.5498V74.5794C56.2597 77.9477 53.4929 80.5942 50.2449 80.5942H19.0881C15.7198 80.5942 13.0732 77.8274 13.0732 74.5794V60.1438" stroke="#0864EF" stroke-width="2" stroke-miterlimit="10"></path><path d="M13.5547 7.81482H56.26" stroke="#0864EF" stroke-width="2" stroke-miterlimit="10"></path><path d="M13.5547 71.572H56.26" stroke="#0864EF" stroke-width="2" stroke-miterlimit="10"></path><path d="M28.5908 4.20593H39.4175" stroke="#0864EF" stroke-width="2" stroke-miterlimit="10" stroke-linecap="round"></path><path d="M34.0046 78.7898C35.3333 78.7898 36.4105 77.7126 36.4105 76.3839C36.4105 75.0551 35.3333 73.9779 34.0046 73.9779C32.6758 73.9779 31.5986 75.0551 31.5986 76.3839C31.5986 77.7126 32.6758 78.7898 34.0046 78.7898Z" fill="#4F95FF"></path><path d="M92.9492 28.7464V56.5349C92.9492 58.4597 91.3853 60.0235 89.4606 60.0235H54.0934L47.1162 66.279V28.7464C47.1162 26.8217 48.6801 25.2578 50.6048 25.2578H89.4606C91.5056 25.2578 92.9492 26.8217 92.9492 28.7464Z" stroke="#252437" stroke-width="2" stroke-miterlimit="10"></path><path d="M61.7932 45.4676C63.3213 45.4676 64.56 44.2289 64.56 42.7008C64.56 41.1727 63.3213 39.934 61.7932 39.934C60.2651 39.934 59.0264 41.1727 59.0264 42.7008C59.0264 44.2289 60.2651 45.4676 61.7932 45.4676Z" fill="#252437"></path><path d="M70.094 45.4676C71.622 45.4676 72.8608 44.2289 72.8608 42.7008C72.8608 41.1727 71.622 39.934 70.094 39.934C68.5659 39.934 67.3271 41.1727 67.3271 42.7008C67.3271 44.2289 68.5659 45.4676 70.094 45.4676Z" fill="#252437"></path><path d="M78.3947 45.4676C79.9228 45.4676 81.1616 44.2289 81.1616 42.7008C81.1616 41.1727 79.9228 39.934 78.3947 39.934C76.8667 39.934 75.6279 41.1727 75.6279 42.7008C75.6279 44.2289 76.8667 45.4676 78.3947 45.4676Z" fill="#252437"></path><path d="M1.52441 38.3701V54.8507C1.52441 56.4146 2.72738 57.6176 4.29124 57.6176H32.6812L38.2149 62.67V38.3701C38.2149 36.8063 37.0119 35.6033 35.448 35.6033H4.29124C2.72738 35.6033 1.52441 36.8063 1.52441 38.3701Z" stroke="#252437" stroke-width="2" stroke-miterlimit="10"></path><path d="M5.73535 40.8964H33.4036" stroke="#252437" stroke-width="2" stroke-miterlimit="10" stroke-linecap="round"></path><path d="M5.73535 46.0691H33.4036" stroke="#252437" stroke-width="2" stroke-miterlimit="10" stroke-linecap="round"></path><path d="M5.73535 51.1216H23.7798" stroke="#252437" stroke-width="2" stroke-miterlimit="10" stroke-linecap="round"></path></svg> 