<?xml version="1.0" encoding="UTF-8"?> <svg xmlns="http://www.w3.org/2000/svg" width="73" height="51" viewBox="0 0 73 51" fill="none"><g clip-path="url(#clip0)"><path d="M42.7568 46.4633H7.35684C4.25684 46.4633 1.75684 43.9633 1.75684 40.8633V6.96328C1.75684 3.86328 4.25684 1.36328 7.35684 1.36328H60.0568C63.2568 1.36328 65.7568 3.86328 65.7568 6.96328V20.5633" stroke="#0864EF" stroke-width="2" stroke-miterlimit="10" stroke-linecap="round"></path><path d="M1.75684 9.36328L30.0568 22.2633C32.4568 23.3633 35.1568 23.3633 37.5568 22.2633L65.7568 9.36328" stroke="#0864EF" stroke-width="2" stroke-miterlimit="10"></path><path d="M58.7568 49.6631C65.9365 49.6631 71.7568 43.8428 71.7568 36.6631C71.7568 29.4834 65.9365 23.6631 58.7568 23.6631C51.5771 23.6631 45.7568 29.4834 45.7568 36.6631C45.7568 43.8428 51.5771 49.6631 58.7568 49.6631Z" stroke="#252437" stroke-width="2" stroke-miterlimit="10"></path><path d="M53.5566 36.2633L57.4566 39.8633L63.9566 33.3633" stroke="#252437" stroke-width="2" stroke-miterlimit="10" stroke-linecap="round"></path></g><defs><clipPath id="clip0"><rect x="0.756836" y="0.363281" width="72" height="50.3" fill="white"></rect></clipPath></defs></svg> 