<?xml version="1.0" encoding="UTF-8"?> <svg xmlns="http://www.w3.org/2000/svg" width="46" height="82" viewBox="0 0 46 82" fill="none"><path d="M1.75391 61.0721L1.75391 7.42635C1.75391 4.0486 4.52073 1.39465 7.76873 1.39465H38.9255C42.2938 1.39465 44.9404 4.16923 44.9404 7.42635V63.2815" stroke="#0864EF" stroke-width="2" stroke-miterlimit="10"></path><path d="M44.9404 62.7122V74.7418C44.9404 78.1101 42.1735 80.7566 38.9255 80.7566H7.76873C4.40043 80.7566 1.75391 77.9898 1.75391 74.7418V60.3062" stroke="#0864EF" stroke-width="2" stroke-miterlimit="10"></path><path d="M2.23535 7.97722H44.9406" stroke="#0864EF" stroke-width="2" stroke-miterlimit="10"></path><path d="M2.23535 71.7344H44.9406" stroke="#0864EF" stroke-width="2" stroke-miterlimit="10"></path><path d="M17.2715 4.36833H28.0982" stroke="#0864EF" stroke-width="2" stroke-miterlimit="10" stroke-linecap="round"></path><path d="M22.6852 78.9522C24.014 78.9522 25.0912 77.875 25.0912 76.5463C25.0912 75.2175 24.014 74.1403 22.6852 74.1403C21.3565 74.1403 20.2793 75.2175 20.2793 76.5463C20.2793 77.875 21.3565 78.9522 22.6852 78.9522Z" fill="#4F95FF"></path><rect x="7.71191" y="13.3511" width="7.60059" height="7.60059" rx="1" stroke="#0864EF" stroke-width="2"></rect><rect x="19.5469" y="13.3511" width="7.60059" height="7.60059" rx="1" stroke="#0864EF" stroke-width="2"></rect><rect x="7.71191" y="26.4681" width="7.60059" height="7.60059" rx="1" stroke="#0864EF" stroke-width="2"></rect><rect x="19.5469" y="26.4681" width="7.60059" height="7.60059" rx="1" stroke="#0864EF" stroke-width="2"></rect><rect x="31.3818" y="26.4681" width="7.60059" height="7.60059" rx="1" stroke="#0864EF" stroke-width="2"></rect><rect x="6.71191" y="38.5852" width="9.60059" height="9.60059" rx="2" fill="#0864EF"></rect><rect x="19.5469" y="39.5852" width="7.60059" height="7.60059" rx="1" stroke="#0864EF" stroke-width="2"></rect><rect x="31.3818" y="13.3511" width="7.60059" height="7.60059" rx="1" stroke="#0864EF" stroke-width="2"></rect></svg> 