<?xml version="1.0" encoding="UTF-8"?> <svg xmlns="http://www.w3.org/2000/svg" width="59" height="57" viewBox="0 0 59 57" fill="none"><g clip-path="url(#clip0)"><path d="M48.6676 17.9001C53.3068 17.9001 57.0676 14.1393 57.0676 9.5001C57.0676 4.86091 53.3068 1.1001 48.6676 1.1001C44.0284 1.1001 40.2676 4.86091 40.2676 9.5001C40.2676 14.1393 44.0284 17.9001 48.6676 17.9001Z" stroke="#0864EF" stroke-width="2" stroke-miterlimit="10" stroke-linecap="round"></path><path d="M48.6676 17.9001C53.3068 17.9001 57.0676 14.1393 57.0676 9.5001C57.0676 4.86091 53.3068 1.1001 48.6676 1.1001C44.0284 1.1001 40.2676 4.86091 40.2676 9.5001C40.2676 14.1393 44.0284 17.9001 48.6676 17.9001Z" stroke="#0864EF" stroke-width="2" stroke-miterlimit="10" stroke-linecap="round"></path><path d="M29.6674 32.5C32.484 32.5 34.7674 30.2167 34.7674 27.4C34.7674 24.5834 32.484 22.3 29.6674 22.3C26.8507 22.3 24.5674 24.5834 24.5674 27.4C24.5674 30.2167 26.8507 32.5 29.6674 32.5Z" stroke="#0864EF" stroke-width="2" stroke-miterlimit="10" stroke-linecap="round"></path><path d="M48.6676 56.0002C53.3068 56.0002 57.0676 52.2394 57.0676 47.6002C57.0676 42.961 53.3068 39.2002 48.6676 39.2002C44.0284 39.2002 40.2676 42.961 40.2676 47.6002C40.2676 52.2394 44.0284 56.0002 48.6676 56.0002Z" stroke="#0864EF" stroke-width="2" stroke-miterlimit="10" stroke-linecap="round"></path><path d="M9.46738 17.9001C14.1066 17.9001 17.8674 14.1393 17.8674 9.5001C17.8674 4.86091 14.1066 1.1001 9.46738 1.1001C4.82819 1.1001 1.06738 4.86091 1.06738 9.5001C1.06738 14.1393 4.82819 17.9001 9.46738 17.9001Z" stroke="#0864EF" stroke-width="2" stroke-miterlimit="10" stroke-linecap="round"></path><path d="M9.46738 56.0002C14.1066 56.0002 17.8674 52.2394 17.8674 47.6002C17.8674 42.961 14.1066 39.2002 9.46738 39.2002C4.82819 39.2002 1.06738 42.961 1.06738 47.6002C1.06738 52.2394 4.82819 56.0002 9.46738 56.0002Z" stroke="#0864EF" stroke-width="2" stroke-miterlimit="10" stroke-linecap="round"></path><path d="M9.46777 35.3V21.8" stroke="#252437" stroke-width="2" stroke-miterlimit="10" stroke-linecap="round"></path><path d="M48.667 35.3V21.8" stroke="#252437" stroke-width="2" stroke-miterlimit="10" stroke-linecap="round"></path><path d="M35.7672 9.5H22.3672" stroke="#252437" stroke-width="2" stroke-miterlimit="10" stroke-linecap="round"></path><path d="M35.7672 47.3H22.3672" stroke="#252437" stroke-width="2" stroke-miterlimit="10" stroke-linecap="round"></path><path d="M35.7676 21.2L39.7676 17.3" stroke="#252437" stroke-width="2" stroke-miterlimit="10" stroke-linecap="round"></path><path d="M22.3672 21.2L18.3672 17.3" stroke="#252437" stroke-width="2" stroke-miterlimit="10" stroke-linecap="round"></path><path d="M22.3672 35.8L18.3672 39.8" stroke="#252437" stroke-width="2" stroke-miterlimit="10" stroke-linecap="round"></path><path d="M35.7676 35.8L39.7676 39.8" stroke="#252437" stroke-width="2" stroke-miterlimit="10" stroke-linecap="round"></path></g><defs><clipPath id="clip0"><rect x="0.0673828" y="0.100098" width="58" height="56.9" fill="white"></rect></clipPath></defs></svg> 