<?xml version="1.0" encoding="UTF-8"?> <svg xmlns="http://www.w3.org/2000/svg" width="55" height="54" viewBox="0 0 55 54" fill="none"><g clip-path="url(#clip0)"><path d="M27.4668 11C30.2282 11 32.4668 8.76142 32.4668 6C32.4668 3.23858 30.2282 1 27.4668 1C24.7054 1 22.4668 3.23858 22.4668 6C22.4668 8.76142 24.7054 11 27.4668 11Z" stroke="#0864EF" stroke-width="2" stroke-miterlimit="10" stroke-linecap="round"></path><path d="M48.4668 11C51.2282 11 53.4668 8.76142 53.4668 6C53.4668 3.23858 51.2282 1 48.4668 1C45.7054 1 43.4668 3.23858 43.4668 6C43.4668 8.76142 45.7054 11 48.4668 11Z" stroke="#0864EF" stroke-width="2" stroke-miterlimit="10" stroke-linecap="round"></path><path d="M6.4668 11C9.22822 11 11.4668 8.76142 11.4668 6C11.4668 3.23858 9.22822 1 6.4668 1C3.70537 1 1.4668 3.23858 1.4668 6C1.4668 8.76142 3.70537 11 6.4668 11Z" stroke="#0864EF" stroke-width="2" stroke-miterlimit="10" stroke-linecap="round"></path><path d="M27.4668 32C30.2282 32 32.4668 29.7614 32.4668 27C32.4668 24.2386 30.2282 22 27.4668 22C24.7054 22 22.4668 24.2386 22.4668 27C22.4668 29.7614 24.7054 32 27.4668 32Z" stroke="#252437" stroke-width="2" stroke-miterlimit="10" stroke-linecap="round"></path><path d="M48.4668 32C51.2282 32 53.4668 29.7614 53.4668 27C53.4668 24.2386 51.2282 22 48.4668 22C45.7054 22 43.4668 24.2386 43.4668 27C43.4668 29.7614 45.7054 32 48.4668 32Z" stroke="#252437" stroke-width="2" stroke-miterlimit="10" stroke-linecap="round"></path><path d="M6.4668 32C9.22822 32 11.4668 29.7614 11.4668 27C11.4668 24.2386 9.22822 22 6.4668 22C3.70537 22 1.4668 24.2386 1.4668 27C1.4668 29.7614 3.70537 32 6.4668 32Z" stroke="#0864EF" stroke-width="2" stroke-miterlimit="10" stroke-linecap="round"></path><path d="M27.4668 53C30.2282 53 32.4668 50.7614 32.4668 48C32.4668 45.2386 30.2282 43 27.4668 43C24.7054 43 22.4668 45.2386 22.4668 48C22.4668 50.7614 24.7054 53 27.4668 53Z" stroke="#0864EF" stroke-width="2" stroke-miterlimit="10" stroke-linecap="round"></path><path d="M48.4668 53C51.2282 53 53.4668 50.7614 53.4668 48C53.4668 45.2386 51.2282 43 48.4668 43C45.7054 43 43.4668 45.2386 43.4668 48C43.4668 50.7614 45.7054 53 48.4668 53Z" stroke="#252437" stroke-width="2" stroke-miterlimit="10" stroke-linecap="round"></path><path d="M6.4668 53C9.22822 53 11.4668 50.7614 11.4668 48C11.4668 45.2386 9.22822 43 6.4668 43C3.70537 43 1.4668 45.2386 1.4668 48C1.4668 50.7614 3.70537 53 6.4668 53Z" stroke="#252437" stroke-width="2" stroke-miterlimit="10" stroke-linecap="round"></path><path d="M6.4668 43L22.4668 27" stroke="#252437" stroke-width="2" stroke-miterlimit="10" stroke-linecap="round"></path><path d="M32.4668 27H43.4668" stroke="#252437" stroke-width="2" stroke-miterlimit="10" stroke-linecap="round"></path><path d="M48.4668 32V43" stroke="#252437" stroke-width="2" stroke-miterlimit="10" stroke-linecap="round"></path></g><defs><clipPath id="clip0"><rect x="0.466797" width="54" height="54" fill="white"></rect></clipPath></defs></svg> 