<?xml version="1.0" encoding="UTF-8"?> <svg xmlns="http://www.w3.org/2000/svg" width="83" height="68" viewBox="0 0 83 68" fill="none"><mask id="path-2-inside-1" fill="white"><path d="M6.08944 45.455L1.22312 23.5035C0.378479 19.5639 2.78892 15.7811 6.7316 14.9372L62.8352 2.57386C66.6656 1.72843 70.5638 4.13859 71.4084 8.07819L72.9931 15.3948"></path></mask><path d="M4.13684 45.8878C4.3759 46.9662 5.44391 47.6466 6.5223 47.4075C7.60069 47.1685 8.28109 46.1005 8.04203 45.0221L4.13684 45.8878ZM1.22312 23.5035L-0.732482 23.9228L-0.729471 23.9364L1.22312 23.5035ZM6.7316 14.9372L7.15021 16.8929L7.162 16.8903L6.7316 14.9372ZM62.8352 2.57386L63.2656 4.527L63.2663 4.52686L62.8352 2.57386ZM71.4084 8.07819L69.4528 8.49746L69.4537 8.50155L71.4084 8.07819ZM71.0384 15.8182C71.2722 16.8977 72.3369 17.5833 73.4164 17.3495C74.496 17.1157 75.1816 16.051 74.9478 14.9715L71.0384 15.8182ZM8.04203 45.0221L3.17572 23.0707L-0.729471 23.9364L4.13684 45.8878L8.04203 45.0221ZM3.17868 23.0843C2.56235 20.2095 4.30322 17.5023 7.1502 16.8929L6.313 12.9815C1.27461 14.0599 -1.80539 18.9183 -0.732435 23.9228L3.17868 23.0843ZM7.162 16.8903L63.2656 4.527L62.4048 0.620723L6.30119 12.9841L7.162 16.8903ZM63.2663 4.52686C66.0345 3.91585 68.8453 5.66351 69.4528 8.49746L73.364 7.65892C72.2823 2.61367 67.2966 -0.458993 62.4041 0.620868L63.2663 4.52686ZM69.4537 8.50155L71.0384 15.8182L74.9478 14.9715L73.3631 7.65484L69.4537 8.50155Z" fill="#0864EF" mask="url(#path-2-inside-1)"></path><path d="M74.8508 66.6637H18.3699C14.3908 66.6637 11.2959 63.4583 11.2959 59.5898V27.4255C11.2959 23.4464 14.5013 20.3516 18.3699 20.3516H74.8508C78.8299 20.3516 81.9247 23.5569 81.9247 27.4255V59.5898C81.9247 63.5689 78.7193 66.6637 74.8508 66.6637Z" stroke="#0864EF" stroke-width="2" stroke-miterlimit="10" stroke-linecap="round"></path><path d="M65.8978 36.1397C64.7925 37.245 63.2451 37.9082 61.5871 37.9082C58.1607 37.9082 55.3975 35.1449 55.3975 31.7185C55.3975 28.2921 58.1607 25.5288 61.5871 25.5288C63.2451 25.5288 64.7925 26.192 65.8978 27.2973" stroke="#252437" stroke-width="2" stroke-miterlimit="10" stroke-linecap="round"></path><path d="M70.2083 37.9082C73.6268 37.9082 76.398 35.137 76.398 31.7185C76.398 28.3 73.6268 25.5288 70.2083 25.5288C66.7898 25.5288 64.0186 28.3 64.0186 31.7185C64.0186 35.137 66.7898 37.9082 70.2083 37.9082Z" stroke="#252437" stroke-width="2" stroke-miterlimit="10" stroke-linecap="round"></path><path d="M17.792 51.3931L29.0065 51.3929" stroke="#0864EF" stroke-width="2" stroke-miterlimit="10" stroke-linecap="round"></path><path d="M33.2334 51.3928H45.1526" stroke="#0864EF" stroke-width="2" stroke-miterlimit="10" stroke-linecap="round"></path><path d="M49.3809 51.3928H60.2167" stroke="#0864EF" stroke-width="2" stroke-miterlimit="10" stroke-linecap="round"></path><path d="M64.4443 51.3928H74.9805" stroke="#0864EF" stroke-width="2" stroke-miterlimit="10" stroke-linecap="round"></path><path d="M54.7979 57.5125H63.6403" stroke="#0864EF" stroke-width="2" stroke-miterlimit="10" stroke-linecap="round"></path><path d="M66.1279 57.5125H74.9703" stroke="#0864EF" stroke-width="2" stroke-miterlimit="10" stroke-linecap="round"></path></svg> 