<?xml version="1.0" encoding="UTF-8"?> <svg xmlns="http://www.w3.org/2000/svg" width="53" height="53" viewBox="0 0 53 53" fill="none"><g clip-path="url(#clip0)"><path d="M10.5731 50.1851C15.5107 50.1851 19.5135 46.1824 19.5135 41.2448C19.5135 36.3072 15.5107 32.3044 10.5731 32.3044C5.63553 32.3044 1.63281 36.3072 1.63281 41.2448C1.63281 46.1824 5.63553 50.1851 10.5731 50.1851Z" stroke="#0864EF" stroke-width="2" stroke-miterlimit="10"></path><path d="M8.58789 29.3244V1.60938" stroke="#252437" stroke-width="2" stroke-miterlimit="10"></path><mask id="path-4-inside-1" fill="white"><path d="M10.2759 3.59629L8.58717 1.90756L6.89844 3.59629V2.20557L8.58717 0.516846L10.2759 2.20557V3.59629Z"></path></mask><path d="M10.2759 3.59629L8.58717 1.90756L6.89844 3.59629V2.20557L8.58717 0.516846L10.2759 2.20557V3.59629Z" fill="#252437"></path><path d="M10.2759 3.59629L8.86168 5.01051L12.2759 8.42472V3.59629H10.2759ZM8.58717 1.90756L10.0014 0.49335L8.58717 -0.920864L7.17295 0.49335L8.58717 1.90756ZM6.89844 3.59629H4.89844V8.42472L8.31265 5.01051L6.89844 3.59629ZM6.89844 2.20557L5.48422 0.791361L4.89844 1.37715V2.20557H6.89844ZM8.58717 0.516846L10.0014 -0.897368L8.58717 -2.31158L7.17295 -0.897368L8.58717 0.516846ZM10.2759 2.20557H12.2759V1.37715L11.6901 0.791361L10.2759 2.20557ZM11.6901 2.18208L10.0014 0.49335L7.17295 3.32178L8.86168 5.01051L11.6901 2.18208ZM7.17295 0.49335L5.48422 2.18208L8.31265 5.01051L10.0014 3.32178L7.17295 0.49335ZM8.89844 3.59629V2.20557H4.89844V3.59629H8.89844ZM8.31265 3.61979L10.0014 1.93106L7.17295 -0.897368L5.48422 0.791361L8.31265 3.61979ZM7.17295 1.93106L8.86168 3.61979L11.6901 0.791361L10.0014 -0.897368L7.17295 1.93106ZM8.27589 2.20557V3.59629H12.2759V2.20557H8.27589Z" fill="#252437" mask="url(#path-4-inside-1)"></path><path d="M50.2092 43.2317H22.4941" stroke="#252437" stroke-width="2" stroke-miterlimit="10"></path><mask id="path-7-inside-2" fill="white"><path d="M48.2217 41.543L49.9104 43.2317L48.2217 44.9204H49.6124L51.3011 43.2317L49.6124 41.543H48.2217Z"></path></mask><path d="M48.2217 41.543L49.9104 43.2317L48.2217 44.9204H49.6124L51.3011 43.2317L49.6124 41.543H48.2217Z" fill="#252437"></path><path d="M48.2217 41.543V39.543H43.3933L46.8075 42.9572L48.2217 41.543ZM49.9104 43.2317L51.3246 44.6459L52.7388 43.2317L51.3246 41.8175L49.9104 43.2317ZM48.2217 44.9204L46.8075 43.5062L43.3933 46.9204H48.2217V44.9204ZM49.6124 44.9204V46.9204H50.4408L51.0266 46.3346L49.6124 44.9204ZM51.3011 43.2317L52.7153 44.6459L54.1296 43.2317L52.7153 41.8175L51.3011 43.2317ZM49.6124 41.543L51.0266 40.1288L50.4408 39.543H49.6124V41.543ZM46.8075 42.9572L48.4962 44.6459L51.3246 41.8175L49.6359 40.1288L46.8075 42.9572ZM48.4962 41.8175L46.8075 43.5062L49.6359 46.3346L51.3246 44.6459L48.4962 41.8175ZM48.2217 46.9204H49.6124V42.9204H48.2217V46.9204ZM51.0266 46.3346L52.7153 44.6459L49.8869 41.8175L48.1982 43.5062L51.0266 46.3346ZM52.7153 41.8175L51.0266 40.1288L48.1982 42.9572L49.8869 44.6459L52.7153 41.8175ZM49.6124 39.543H48.2217V43.543H49.6124V39.543Z" fill="#252437" mask="url(#path-7-inside-2)"></path><path d="M12.0811 20.7693H30.9551V39.6433" stroke="#252437" stroke-width="2" stroke-miterlimit="10" stroke-linejoin="round" stroke-dasharray="2 2"></path><path d="M12.0811 8.35254H43.3722V39.6437" stroke="#252437" stroke-width="2" stroke-miterlimit="10" stroke-linejoin="round" stroke-dasharray="2 2"></path></g><defs><clipPath id="clip0"><rect x="0.466797" y="0.516846" width="52" height="52" fill="white"></rect></clipPath></defs></svg> 