<?xml version="1.0" encoding="UTF-8"?> <svg xmlns="http://www.w3.org/2000/svg" width="89" height="69" viewBox="0 0 89 69" fill="none"><path d="M44.6632 25.9314C51.2939 25.9314 56.6692 20.5561 56.6692 13.9254C56.6692 7.29469 51.2939 1.91943 44.6632 1.91943C38.0325 1.91943 32.6572 7.29469 32.6572 13.9254C32.6572 20.5561 38.0325 25.9314 44.6632 25.9314Z" stroke="#252437" stroke-width="2" stroke-miterlimit="10"></path><path d="M44.6632 67.0947C51.2939 67.0947 56.6692 61.7195 56.6692 55.0887C56.6692 48.458 51.2939 43.0828 44.6632 43.0828C38.0325 43.0828 32.6572 48.458 32.6572 55.0887C32.6572 61.7195 38.0325 67.0947 44.6632 67.0947Z" stroke="#0864EF" stroke-width="2" stroke-miterlimit="10"></path><path d="M75.5353 67.0947C82.166 67.0947 87.5413 61.7195 87.5413 55.0887C87.5413 48.458 82.166 43.0828 75.5353 43.0828C68.9046 43.0828 63.5293 48.458 63.5293 55.0887C63.5293 61.7195 68.9046 67.0947 75.5353 67.0947Z" stroke="#0864EF" stroke-width="2" stroke-miterlimit="10"></path><path d="M13.7902 67.0947C20.4209 67.0947 25.7961 61.7195 25.7961 55.0887C25.7961 48.458 20.4209 43.0828 13.7902 43.0828C7.15944 43.0828 1.78418 48.458 1.78418 55.0887C1.78418 61.7195 7.15944 67.0947 13.7902 67.0947Z" stroke="#0864EF" stroke-width="2" stroke-miterlimit="10"></path><path d="M44.6631 31.0769V37.9375" stroke="#0864EF" stroke-width="2" stroke-miterlimit="10" stroke-linecap="round"></path><path d="M45.1767 18.2132C48.0184 18.2132 50.3221 15.9095 50.3221 13.0678C50.3221 10.226 48.0184 7.92236 45.1767 7.92236C42.3349 7.92236 40.0312 10.226 40.0312 13.0678C40.0312 15.9095 42.3349 18.2132 45.1767 18.2132Z" stroke="#252437" stroke-width="2" stroke-miterlimit="10"></path><path d="M36.7734 22.501C38.6601 19.9283 41.7473 18.2131 45.1776 18.2131C48.6078 18.2131 51.6951 19.9283 53.5818 22.501" stroke="#252437" stroke-width="2" stroke-miterlimit="10"></path><path d="M61.8135 15.6406H68.674C72.4473 15.6406 75.5346 18.7279 75.5346 22.5012V37.9374" stroke="#0864EF" stroke-width="2" stroke-miterlimit="10" stroke-linecap="round"></path><path d="M26.6537 15.6406H19.7932C16.0199 15.6406 12.9326 18.7279 12.9326 22.5012V37.9374" stroke="#0864EF" stroke-width="2" stroke-miterlimit="10" stroke-linecap="round"></path></svg> 