<?xml version="1.0" encoding="UTF-8"?> <svg xmlns="http://www.w3.org/2000/svg" width="69" height="58" viewBox="0 0 69 58" fill="none"><g clip-path="url(#clip0)"><path d="M46.7493 46.4876H57.77C62.9286 46.4876 67.1493 42.2827 67.1493 37.1433V11.0962C67.1493 5.95687 62.9286 1.75195 57.77 1.75195H10.8735C5.71483 1.75195 1.49414 5.95687 1.49414 11.0962V37.1433C1.49414 42.2827 5.71483 46.4876 10.8735 46.4876H23.5355C24.9424 46.4876 26.2321 47.0716 27.17 48.0061L35.1424 55.9487L43.1148 48.0061C44.17 47.0716 45.4597 46.4876 46.7493 46.4876Z" stroke="#252437" stroke-width="2" stroke-miterlimit="10" stroke-linecap="round"></path><path d="M41.2389 35.1576H16.8527C15.4458 35.1576 14.3906 33.9896 14.3906 32.7047V16.9363C14.3906 15.5346 15.563 14.4834 16.8527 14.4834H41.2389C42.6458 14.4834 43.701 15.6514 43.701 16.9363V32.5879C43.8182 33.9895 42.6458 35.1576 41.2389 35.1576Z" stroke="#0864EF" stroke-width="2" stroke-miterlimit="10" stroke-linecap="round"></path><path d="M43.8184 20.4403L52.9632 18.6883C53.6666 18.5715 54.2528 19.0387 54.2528 19.7395V30.719C54.2528 31.4199 53.6666 31.8871 52.9632 31.7703L44.0528 30.0182" stroke="#0864EF" stroke-width="2" stroke-miterlimit="10" stroke-linecap="round"></path></g><defs><clipPath id="clip0"><rect x="0.321289" y="0.583984" width="68" height="57" fill="white"></rect></clipPath></defs></svg> 