<?xml version="1.0" encoding="UTF-8"?> <svg xmlns="http://www.w3.org/2000/svg" width="59" height="62" viewBox="0 0 59 62" fill="none"><g clip-path="url(#clip0)"><path d="M49.0664 33C36.1664 32.3 25.2664 24.8 19.5664 14.2" stroke="#252437" stroke-width="2" stroke-miterlimit="10" stroke-linecap="round"></path><path d="M7.4668 42V23C7.4668 10.8 17.2668 1 29.4668 1C41.6668 1 51.4668 10.8 51.4668 23V36C51.4668 45.6 45.2668 54.8 36.6668 57.8" stroke="#0864EF" stroke-width="2" stroke-miterlimit="10" stroke-linecap="round"></path><path d="M51.4668 28H52.8668C55.3668 28 57.4668 30 57.4668 32.6V37.4C57.4668 39.9 55.4668 42 52.8668 42H51.4668" stroke="#0864EF" stroke-width="2" stroke-miterlimit="10" stroke-linecap="round"></path><path d="M7.4668 28H6.0668C3.4668 28 1.4668 30.1 1.4668 32.6V37.4C1.4668 40 3.4668 42 6.0668 42H7.4668" stroke="#0864EF" stroke-width="2" stroke-miterlimit="10" stroke-linecap="round"></path><path d="M34.3668 61.0001H27.6668C26.4668 61.0001 25.4668 60.0001 25.4668 58.9001V57.2001C25.4668 56.0001 26.4668 55.1001 27.5668 55.1001H34.2668C35.4668 55.1001 36.3668 56.1001 36.3668 57.2001V58.9001C36.4668 60.0001 35.4668 61.0001 34.3668 61.0001Z" stroke="#0864EF" stroke-width="2" stroke-miterlimit="10" stroke-linecap="round"></path><path d="M45.4668 37.9C43.0668 44.7 37.2668 49.5 30.5668 49.5C21.6668 49.5 14.4668 41 14.4668 30.5V21.5C14.4668 17 15.8668 12.8 18.0668 9.5" stroke="#252437" stroke-width="2" stroke-miterlimit="10" stroke-linecap="round"></path></g><defs><clipPath id="clip0"><rect x="0.466797" width="58" height="62" fill="white"></rect></clipPath></defs></svg> 