<?xml version="1.0" encoding="UTF-8"?> <svg xmlns="http://www.w3.org/2000/svg" width="81" height="85" viewBox="0 0 81 85" fill="none"><path d="M40.7162 65.821C34.456 65.821 29.334 60.699 29.334 54.4387V30.7257C29.334 24.4654 34.456 19.3434 40.7162 19.3434C46.9765 19.3434 52.0985 24.4654 52.0985 30.7257V54.4387C52.0985 60.699 46.9765 65.821 40.7162 65.821Z" stroke="#0864EF" stroke-width="2" stroke-miterlimit="10"></path><path d="M57.4099 55.3872C57.4099 64.6827 49.8218 72.2709 40.5263 72.2709C31.2308 72.2709 23.6426 64.6827 23.6426 55.3872" stroke="#0864EF" stroke-width="2" stroke-miterlimit="10" stroke-linecap="round"></path><path d="M40.7158 71.8917V83.8431" stroke="#0864EF" stroke-width="2" stroke-miterlimit="10"></path><path d="M34.2656 83.843H46.9758" stroke="#0864EF" stroke-width="2" stroke-miterlimit="10" stroke-linecap="round"></path><path d="M34.6445 36.2272H46.4062" stroke="#0864EF" stroke-width="2" stroke-miterlimit="10" stroke-linecap="round"></path><path d="M34.6445 42.6772H46.4062" stroke="#0864EF" stroke-width="2" stroke-miterlimit="10" stroke-linecap="round"></path><path d="M34.6445 48.9374H46.4062" stroke="#0864EF" stroke-width="2" stroke-miterlimit="10" stroke-linecap="round"></path><path d="M11.1211 27.5009C11.1211 13.197 24.4004 1.65637 40.9047 1.65637C57.4089 1.65637 70.6883 13.197 70.6883 27.5009" stroke="#252437" stroke-width="2" stroke-miterlimit="10"></path><path d="M10.7421 50.0756C7.89657 50.0756 5.62012 47.7992 5.62012 44.9536V32.0537C5.62012 29.2082 7.89657 26.9317 10.7421 26.9317C13.5877 26.9317 15.8642 29.2082 15.8642 32.0537V44.9536C15.8642 47.7992 13.5877 50.0756 10.7421 50.0756Z" stroke="#252437" stroke-width="2" stroke-miterlimit="10"></path><path d="M70.4999 50.0756C67.6544 50.0756 65.3779 47.7992 65.3779 44.9536V32.0537C65.3779 29.2082 67.6544 26.9317 70.4999 26.9317C73.3455 26.9317 75.622 29.2082 75.622 32.0537V44.9536C75.4323 47.7992 73.3455 50.0756 70.4999 50.0756Z" stroke="#252437" stroke-width="2" stroke-miterlimit="10"></path><path d="M75.6221 44.3846V34.3303C78.0882 34.3303 79.9853 36.2273 79.9853 38.6935V40.0214C79.9853 42.4876 78.0882 44.3846 75.6221 44.3846Z" stroke="#252437" stroke-width="2" stroke-miterlimit="10"></path><path d="M5.62101 34.3303V44.3846C3.15486 44.3846 1.25781 42.4876 1.25781 40.0214V38.5038C1.25781 36.2273 3.15486 34.3303 5.62101 34.3303Z" stroke="#252437" stroke-width="2" stroke-miterlimit="10"></path></svg> 